<svg width="150" height="130" viewBox="0 0 150 130" fill="none" xmlns="http://www.w3.org/2000/svg">
<rect width="150" height="130" fill="#F6FAFB"/>
<path d="M41.0492 107.273H42.5449L44.8248 111.24H44.9185L47.1983 107.273H48.6941L45.5279 112.574V116H44.2154V112.574L41.0492 107.273ZM51.514 116.132C50.9004 116.132 50.3649 115.991 49.9075 115.71C49.4501 115.429 49.095 115.036 48.8422 114.53C48.5893 114.024 48.4629 113.433 48.4629 112.757C48.4629 112.078 48.5893 111.484 48.8422 110.976C49.095 110.467 49.4501 110.072 49.9075 109.791C50.3649 109.51 50.9004 109.369 51.514 109.369C52.1277 109.369 52.6632 109.51 53.1206 109.791C53.5779 110.072 53.9331 110.467 54.1859 110.976C54.4387 111.484 54.5652 112.078 54.5652 112.757C54.5652 113.433 54.4387 114.024 54.1859 114.53C53.9331 115.036 53.5779 115.429 53.1206 115.71C52.6632 115.991 52.1277 116.132 51.514 116.132ZM51.5183 115.062C51.916 115.062 52.2456 114.957 52.5069 114.747C52.7683 114.537 52.9615 114.257 53.0865 113.908C53.2143 113.558 53.2782 113.173 53.2782 112.753C53.2782 112.335 53.2143 111.952 53.0865 111.602C52.9615 111.25 52.7683 110.967 52.5069 110.754C52.2456 110.541 51.916 110.435 51.5183 110.435C51.1177 110.435 50.7853 110.541 50.5211 110.754C50.2598 110.967 50.0652 111.25 49.9373 111.602C49.8123 111.952 49.7498 112.335 49.7498 112.753C49.7498 113.173 49.8123 113.558 49.9373 113.908C50.0652 114.257 50.2598 114.537 50.5211 114.747C50.7853 114.957 51.1177 115.062 51.5183 115.062ZM60.1337 113.286V109.455H61.4121V116H60.1593V114.866H60.0911C59.9405 115.216 59.699 115.507 59.3667 115.74C59.0371 115.97 58.6266 116.085 58.1351 116.085C57.7147 116.085 57.3425 115.993 57.0186 115.808C56.6976 115.621 56.4448 115.344 56.2601 114.977C56.0783 114.611 55.9874 114.158 55.9874 113.618V109.455H57.2615V113.464C57.2615 113.911 57.3851 114.266 57.6323 114.53C57.8794 114.794 58.2005 114.926 58.5953 114.926C58.834 114.926 59.0712 114.866 59.307 114.747C59.5456 114.628 59.7431 114.447 59.8993 114.206C60.0584 113.964 60.1365 113.658 60.1337 113.286ZM63.1241 116V109.455H64.3556V110.494H64.4238C64.5431 110.142 64.7534 109.865 65.0545 109.663C65.3585 109.459 65.7022 109.357 66.0858 109.357C66.1653 109.357 66.2591 109.359 66.367 109.365C66.4778 109.371 66.5645 109.378 66.627 109.386V110.605C66.5758 110.591 66.4849 110.575 66.3542 110.558C66.2235 110.538 66.0929 110.528 65.9622 110.528C65.661 110.528 65.3926 110.592 65.1568 110.72C64.9238 110.845 64.7392 111.02 64.6028 111.244C64.4664 111.466 64.3983 111.719 64.3983 112.003V116H63.1241ZM78.5886 111.636C78.5886 112.568 78.4181 113.369 78.0772 114.04C77.7363 114.707 77.269 115.222 76.6752 115.582C76.0843 115.94 75.4125 116.119 74.6596 116.119C73.9039 116.119 73.2292 115.94 72.6355 115.582C72.0446 115.222 71.5787 114.706 71.2377 114.036C70.8968 113.365 70.7264 112.565 70.7264 111.636C70.7264 110.705 70.8968 109.905 71.2377 109.237C71.5787 108.567 72.0446 108.053 72.6355 107.695C73.2292 107.334 73.9039 107.153 74.6596 107.153C75.4125 107.153 76.0843 107.334 76.6752 107.695C77.269 108.053 77.7363 108.567 78.0772 109.237C78.4181 109.905 78.5886 110.705 78.5886 111.636ZM77.2846 111.636C77.2846 110.926 77.1696 110.328 76.9395 109.842C76.7122 109.354 76.3997 108.984 76.002 108.734C75.6071 108.482 75.1596 108.355 74.6596 108.355C74.1568 108.355 73.7079 108.482 73.313 108.734C72.9181 108.984 72.6056 109.354 72.3755 109.842C72.1483 110.328 72.0346 110.926 72.0346 111.636C72.0346 112.347 72.1483 112.946 72.3755 113.435C72.6056 113.92 72.9181 114.29 73.313 114.543C73.7079 114.793 74.1568 114.918 74.6596 114.918C75.1596 114.918 75.6071 114.793 76.002 114.543C76.3997 114.29 76.7122 113.92 76.9395 113.435C77.1696 112.946 77.2846 112.347 77.2846 111.636ZM80.128 116V109.455H81.3596V110.494H81.4277C81.5471 110.142 81.7573 109.865 82.0584 109.663C82.3624 109.459 82.7061 109.357 83.0897 109.357C83.1692 109.357 83.263 109.359 83.3709 109.365C83.4817 109.371 83.5684 109.378 83.6309 109.386V110.605C83.5797 110.591 83.4888 110.575 83.3581 110.558C83.2275 110.538 83.0968 110.528 82.9661 110.528C82.665 110.528 82.3965 110.592 82.1607 110.72C81.9277 110.845 81.7431 111.02 81.6067 111.244C81.4703 111.466 81.4022 111.719 81.4022 112.003V116H80.128ZM86.9494 116.128C86.421 116.128 85.9494 115.993 85.5346 115.723C85.1227 115.45 84.7988 115.062 84.563 114.56C84.3301 114.054 84.2136 113.447 84.2136 112.74C84.2136 112.033 84.3315 111.428 84.5673 110.925C84.8059 110.422 85.1326 110.037 85.5474 109.77C85.9622 109.503 86.4324 109.369 86.9579 109.369C87.3642 109.369 87.6909 109.438 87.938 109.574C88.188 109.707 88.3812 109.864 88.5176 110.043C88.6568 110.222 88.7647 110.379 88.8414 110.516H88.9181V107.273H90.1923V116H88.948V114.982H88.8414C88.7647 115.121 88.6539 115.28 88.5091 115.459C88.367 115.638 88.171 115.794 87.921 115.928C87.671 116.061 87.3471 116.128 86.9494 116.128ZM87.2306 115.041C87.5971 115.041 87.9068 114.945 88.1596 114.751C88.4153 114.555 88.6085 114.284 88.7392 113.938C88.8727 113.591 88.9395 113.187 88.9395 112.727C88.9395 112.273 88.8741 111.875 88.7434 111.534C88.6127 111.193 88.421 110.928 88.1681 110.737C87.9153 110.547 87.6028 110.452 87.2306 110.452C86.8471 110.452 86.5275 110.551 86.2718 110.75C86.0162 110.949 85.823 111.22 85.6923 111.564C85.5645 111.908 85.5005 112.295 85.5005 112.727C85.5005 113.165 85.5659 113.558 85.6966 113.908C85.8272 114.257 86.0204 114.534 86.2761 114.739C86.5346 114.94 86.8528 115.041 87.2306 115.041ZM94.8319 116.132C94.187 116.132 93.6316 115.994 93.1657 115.719C92.7026 115.44 92.3446 115.05 92.0918 114.547C91.8418 114.041 91.7168 113.449 91.7168 112.77C91.7168 112.099 91.8418 111.509 92.0918 110.997C92.3446 110.486 92.6969 110.087 93.1486 109.8C93.6032 109.513 94.1344 109.369 94.7424 109.369C95.1117 109.369 95.4696 109.43 95.8162 109.553C96.1628 109.675 96.4739 109.866 96.7495 110.128C97.025 110.389 97.2424 110.729 97.4015 111.146C97.5605 111.561 97.6401 112.065 97.6401 112.659V113.111H92.437V112.156H96.3915C96.3915 111.821 96.3233 111.524 96.187 111.266C96.0506 111.004 95.8588 110.798 95.6117 110.648C95.3674 110.497 95.0804 110.422 94.7509 110.422C94.3929 110.422 94.0804 110.51 93.8134 110.686C93.5492 110.859 93.3446 111.087 93.1998 111.368C93.0577 111.646 92.9867 111.949 92.9867 112.276V113.021C92.9867 113.459 93.0634 113.831 93.2168 114.138C93.373 114.445 93.5904 114.679 93.8688 114.841C94.1472 115 94.4725 115.08 94.8446 115.08C95.0861 115.08 95.3063 115.045 95.5051 114.977C95.704 114.906 95.8759 114.801 96.0208 114.662C96.1657 114.523 96.2765 114.351 96.3532 114.146L97.5591 114.364C97.4625 114.719 97.2892 115.03 97.0392 115.297C96.7921 115.561 96.481 115.767 96.106 115.915C95.7338 116.06 95.3091 116.132 94.8319 116.132ZM99.0538 116V109.455H100.285V110.494H100.354C100.473 110.142 100.683 109.865 100.984 109.663C101.288 109.459 101.632 109.357 102.015 109.357C102.095 109.357 102.189 109.359 102.297 109.365C102.407 109.371 102.494 109.378 102.557 109.386V110.605C102.506 110.591 102.415 110.575 102.284 110.558C102.153 110.538 102.023 110.528 101.892 110.528C101.591 110.528 101.322 110.592 101.086 110.72C100.854 110.845 100.669 111.02 100.532 111.244C100.396 111.466 100.328 111.719 100.328 112.003V116H99.0538ZM108.564 111.053L107.409 111.257C107.361 111.109 107.284 110.969 107.179 110.835C107.077 110.702 106.938 110.592 106.762 110.507C106.585 110.422 106.365 110.379 106.101 110.379C105.74 110.379 105.439 110.46 105.198 110.622C104.956 110.781 104.835 110.987 104.835 111.24C104.835 111.459 104.916 111.635 105.078 111.768C105.24 111.902 105.502 112.011 105.862 112.097L106.902 112.335C107.504 112.474 107.953 112.689 108.249 112.979C108.544 113.268 108.692 113.645 108.692 114.108C108.692 114.5 108.578 114.849 108.351 115.156C108.127 115.46 107.813 115.699 107.409 115.872C107.009 116.045 106.544 116.132 106.016 116.132C105.283 116.132 104.685 115.976 104.222 115.663C103.759 115.348 103.475 114.901 103.369 114.321L104.601 114.134C104.678 114.455 104.835 114.697 105.074 114.862C105.313 115.024 105.624 115.105 106.007 115.105C106.425 115.105 106.759 115.018 107.009 114.845C107.259 114.669 107.384 114.455 107.384 114.202C107.384 113.997 107.307 113.825 107.154 113.686C107.003 113.547 106.771 113.442 106.459 113.371L105.351 113.128C104.74 112.989 104.289 112.767 103.996 112.463C103.706 112.159 103.561 111.774 103.561 111.308C103.561 110.922 103.669 110.584 103.885 110.294C104.101 110.004 104.399 109.778 104.78 109.616C105.161 109.452 105.597 109.369 106.088 109.369C106.796 109.369 107.352 109.523 107.759 109.83C108.165 110.134 108.433 110.541 108.564 111.053Z" fill="#18191A"/>
<rect x="29" y="24" width="92.1951" height="60"/>
</svg>


