<svg width="150" height="130" viewBox="0 0 150 130" fill="none" xmlns="http://www.w3.org/2000/svg">
<rect width="150" height="130" fill="#F6FAFB"/>
<rect x="24.166" y="12" width="101.669" height="82"/>
<path d="M53.5174 116V107.273H58.9293V108.406H54.8342V111.065H58.5415V112.195H54.8342V116H53.5174ZM62.3278 116.145C61.913 116.145 61.538 116.068 61.2028 115.915C60.8675 115.759 60.6019 115.533 60.4059 115.237C60.2127 114.942 60.1161 114.58 60.1161 114.151C60.1161 113.781 60.1871 113.477 60.3292 113.239C60.4712 113 60.663 112.811 60.9045 112.672C61.146 112.533 61.4158 112.428 61.7141 112.357C62.0124 112.286 62.3164 112.232 62.6261 112.195C63.0181 112.149 63.3363 112.112 63.5806 112.084C63.8249 112.053 64.0025 112.003 64.1133 111.935C64.2241 111.866 64.2795 111.756 64.2795 111.602V111.572C64.2795 111.2 64.1744 110.912 63.9641 110.707C63.7567 110.503 63.4471 110.401 63.0352 110.401C62.6062 110.401 62.2681 110.496 62.021 110.686C61.7766 110.874 61.6076 111.082 61.5138 111.312L60.3164 111.04C60.4585 110.642 60.6658 110.321 60.9386 110.077C61.2141 109.83 61.5309 109.651 61.8888 109.54C62.2468 109.426 62.6232 109.369 63.0181 109.369C63.2795 109.369 63.5565 109.401 63.8491 109.463C64.1445 109.523 64.4201 109.634 64.6758 109.795C64.9343 109.957 65.146 110.189 65.3107 110.49C65.4755 110.788 65.5579 111.176 65.5579 111.653V116H64.3136V115.105H64.2624C64.18 115.27 64.0565 115.432 63.8917 115.591C63.7269 115.75 63.5153 115.882 63.2567 115.987C62.9982 116.092 62.6886 116.145 62.3278 116.145ZM62.6048 115.122C62.957 115.122 63.2582 115.053 63.5082 114.913C63.761 114.774 63.9528 114.592 64.0835 114.368C64.217 114.141 64.2837 113.898 64.2837 113.639V112.795C64.2383 112.841 64.1502 112.884 64.0195 112.923C63.8917 112.96 63.7454 112.993 63.5806 113.021C63.4158 113.047 63.2553 113.071 63.0991 113.094C62.9428 113.114 62.8121 113.131 62.707 113.145C62.4599 113.176 62.234 113.229 62.0295 113.303C61.8278 113.376 61.6658 113.483 61.5437 113.622C61.4244 113.759 61.3647 113.94 61.3647 114.168C61.3647 114.483 61.4812 114.722 61.7141 114.884C61.9471 115.043 62.244 115.122 62.6048 115.122ZM72.1598 111.053L71.005 111.257C70.9567 111.109 70.88 110.969 70.7749 110.835C70.6726 110.702 70.5334 110.592 70.3572 110.507C70.1811 110.422 69.9609 110.379 69.6967 110.379C69.3359 110.379 69.0348 110.46 68.7933 110.622C68.5518 110.781 68.4311 110.987 68.4311 111.24C68.4311 111.459 68.5121 111.635 68.674 111.768C68.8359 111.902 69.0973 112.011 69.4581 112.097L70.4979 112.335C71.1001 112.474 71.549 112.689 71.8445 112.979C72.1399 113.268 72.2876 113.645 72.2876 114.108C72.2876 114.5 72.174 114.849 71.9467 115.156C71.7223 115.46 71.4084 115.699 71.005 115.872C70.6044 116.045 70.1399 116.132 69.6115 116.132C68.8786 116.132 68.2805 115.976 67.8175 115.663C67.3544 115.348 67.0703 114.901 66.9652 114.321L68.1967 114.134C68.2734 114.455 68.4311 114.697 68.6697 114.862C68.9084 115.024 69.2195 115.105 69.603 115.105C70.0206 115.105 70.3544 115.018 70.6044 114.845C70.8544 114.669 70.9794 114.455 70.9794 114.202C70.9794 113.997 70.9027 113.825 70.7493 113.686C70.5987 113.547 70.3672 113.442 70.0547 113.371L68.9467 113.128C68.3359 112.989 67.8842 112.767 67.5916 112.463C67.3018 112.159 67.157 111.774 67.157 111.308C67.157 110.922 67.2649 110.584 67.4808 110.294C67.6967 110.004 67.995 109.778 68.3757 109.616C68.7564 109.452 69.1925 109.369 69.6839 109.369C70.3913 109.369 70.9482 109.523 71.3544 109.83C71.7607 110.134 72.0291 110.541 72.1598 111.053ZM74.9627 112.114V116H73.6886V107.273H74.9457V110.52H75.0266C75.18 110.168 75.4144 109.888 75.7298 109.68C76.0451 109.473 76.457 109.369 76.9656 109.369C77.4144 109.369 77.8065 109.462 78.1417 109.646C78.4798 109.831 78.7411 110.107 78.9258 110.473C79.1133 110.837 79.207 111.291 79.207 111.837V116H77.9329V111.99C77.9329 111.51 77.8093 111.138 77.5621 110.874C77.315 110.607 76.9712 110.473 76.5309 110.473C76.2298 110.473 75.9599 110.537 75.7212 110.665C75.4854 110.793 75.2994 110.98 75.163 111.227C75.0295 111.472 74.9627 111.767 74.9627 112.114ZM80.9073 116V109.455H82.1815V116H80.9073ZM81.5508 108.445C81.3292 108.445 81.1388 108.371 80.9798 108.223C80.8235 108.072 80.7454 107.893 80.7454 107.686C80.7454 107.476 80.8235 107.297 80.9798 107.149C81.1388 106.999 81.3292 106.923 81.5508 106.923C81.7724 106.923 81.9613 106.999 82.1175 107.149C82.2766 107.297 82.3562 107.476 82.3562 107.686C82.3562 107.893 82.2766 108.072 82.1175 108.223C81.9613 108.371 81.7724 108.445 81.5508 108.445ZM86.6527 116.132C86.0391 116.132 85.5036 115.991 85.0462 115.71C84.5888 115.429 84.2337 115.036 83.9808 114.53C83.728 114.024 83.6016 113.433 83.6016 112.757C83.6016 112.078 83.728 111.484 83.9808 110.976C84.2337 110.467 84.5888 110.072 85.0462 109.791C85.5036 109.51 86.0391 109.369 86.6527 109.369C87.2663 109.369 87.8018 109.51 88.2592 109.791C88.7166 110.072 89.0717 110.467 89.3246 110.976C89.5774 111.484 89.7038 112.078 89.7038 112.757C89.7038 113.433 89.5774 114.024 89.3246 114.53C89.0717 115.036 88.7166 115.429 88.2592 115.71C87.8018 115.991 87.2663 116.132 86.6527 116.132ZM86.657 115.062C87.0547 115.062 87.3842 114.957 87.6456 114.747C87.907 114.537 88.1001 114.257 88.2251 113.908C88.353 113.558 88.4169 113.173 88.4169 112.753C88.4169 112.335 88.353 111.952 88.2251 111.602C88.1001 111.25 87.907 110.967 87.6456 110.754C87.3842 110.541 87.0547 110.435 86.657 110.435C86.2564 110.435 85.924 110.541 85.6598 110.754C85.3984 110.967 85.2038 111.25 85.076 111.602C84.951 111.952 84.8885 112.335 84.8885 112.753C84.8885 113.173 84.951 113.558 85.076 113.908C85.2038 114.257 85.3984 114.537 85.6598 114.747C85.924 114.957 86.2564 115.062 86.657 115.062ZM92.4002 112.114V116H91.1261V109.455H92.3491V110.52H92.43C92.5806 110.173 92.8164 109.895 93.1374 109.685C93.4613 109.474 93.869 109.369 94.3604 109.369C94.8065 109.369 95.1971 109.463 95.5323 109.651C95.8675 109.835 96.1275 110.111 96.3121 110.477C96.4968 110.844 96.5891 111.297 96.5891 111.837V116H95.315V111.99C95.315 111.516 95.1914 111.145 94.9442 110.878C94.6971 110.608 94.3576 110.473 93.9258 110.473C93.6303 110.473 93.3675 110.537 93.1374 110.665C92.9102 110.793 92.7298 110.98 92.5962 111.227C92.4656 111.472 92.4002 111.767 92.4002 112.114Z" fill="#18191A"/>
</svg>
