<svg width="97" height="47" viewBox="0 0 97 47" fill="none" xmlns="http://www.w3.org/2000/svg">
<path d="M19.988 34.788C19.956 34.788 19.844 34.74 19.652 34.644C19.492 34.58 19.396 34.548 19.364 34.548C19.332 34.548 19.316 34.564 19.316 34.596C19.316 34.66 19.3 34.692 19.268 34.692L19.172 34.596L19.076 34.74C18.852 34.612 18.74 34.532 18.74 34.5C18.676 34.532 18.628 34.548 18.596 34.548C18.564 34.516 18.548 34.436 18.548 34.308L18.164 34.212C18.132 34.212 18.1 34.228 18.068 34.26C18.036 34.324 18.004 34.356 17.972 34.356C17.876 34.356 17.78 34.308 17.684 34.212C17.588 34.212 17.54 34.276 17.54 34.404H17.3C17.268 34.404 17.156 34.34 16.964 34.212C16.772 34.116 16.644 34.068 16.58 34.068C16.548 34.068 16.468 34.084 16.34 34.116C16.244 34.18 16.18 34.212 16.148 34.212H15.62C15.364 33.956 15.188 33.828 15.092 33.828L14.948 33.972C14.884 33.908 14.804 33.876 14.708 33.876H14.372C14.276 33.812 14.068 33.7 13.748 33.54C13.428 33.38 13.172 33.268 12.98 33.204C12.916 33.204 12.884 33.236 12.884 33.3C12.404 32.788 12.068 32.532 11.876 32.532H11.828C11.828 32.564 11.812 32.58 11.78 32.58C11.748 32.58 11.7 32.548 11.636 32.484L11.492 32.58C11.46 32.42 11.38 32.324 11.252 32.292C11.156 32.26 10.996 32.196 10.772 32.1C10.74 32.1 10.692 32.052 10.628 31.956C10.596 31.892 10.564 31.86 10.532 31.86C10.5 31.86 10.468 31.876 10.436 31.908C10.436 31.94 10.42 31.956 10.388 31.956L10.004 31.668V31.524C9.684 31.428 9.508 31.348 9.476 31.284C9.444 31.316 9.412 31.332 9.38 31.332C9.348 31.14 9.268 31.044 9.14 31.044C9.076 31.044 9.028 31.06 8.996 31.092C8.868 30.868 8.756 30.756 8.66 30.756V30.612L8.084 30.372C7.892 30.02 7.732 29.844 7.604 29.844H7.508C7.476 29.876 7.428 29.892 7.364 29.892L6.932 29.46C6.868 29.428 6.74 29.316 6.548 29.124V28.932C6.484 28.868 6.404 28.836 6.308 28.836C6.372 28.772 6.132 28.5 5.588 28.02C5.556 27.924 5.508 27.796 5.444 27.636C5.38 27.444 5.316 27.236 5.252 27.012C5.22 27.012 5.188 27.028 5.156 27.06C4.996 26.9 4.644 26.804 4.1 26.772C4.1 26.676 4.084 26.612 4.052 26.58C3.956 26.644 3.908 26.692 3.908 26.724C3.876 26.692 3.828 26.66 3.764 26.628C3.7 26.596 3.604 26.564 3.476 26.532L2.9 26.34C2.868 26.308 2.772 26.26 2.612 26.196C2.484 26.1 2.292 25.972 2.036 25.812L1.652 25.332L1.556 25.428L1.268 25.236V25.092C0.82 24.708 0.532 24.308 0.404 23.892C0.468 23.732 0.468 23.332 0.404 22.692L1.028 21.78C1.284 21.78 1.412 21.844 1.412 21.972C1.412 22.132 1.316 22.276 1.124 22.404C0.964 22.532 0.868 22.644 0.836 22.74C0.932 22.836 1.028 22.884 1.124 22.884C1.092 22.948 1.076 23.028 1.076 23.124C1.076 23.316 1.172 23.508 1.364 23.7C1.396 23.732 1.46 23.748 1.556 23.748C1.556 23.748 1.572 23.748 1.604 23.748C1.668 23.748 1.732 23.732 1.796 23.7H2.18V24.036C2.372 24.356 2.516 24.516 2.612 24.516C2.644 24.516 2.66 24.5 2.66 24.468C2.628 24.436 2.628 24.42 2.66 24.42C2.788 24.42 2.916 24.452 3.044 24.516C3.204 24.804 3.364 24.948 3.524 24.948C3.428 24.948 3.508 24.916 3.764 24.852L4.004 25.14C4.196 25.044 4.292 24.948 4.292 24.852C4.292 24.82 4.26 24.74 4.196 24.612C4.164 24.484 4.132 24.404 4.1 24.372V24.18C4.1 23.988 4.02 23.7 3.86 23.316V22.356L4.004 22.02C3.972 21.988 3.956 21.94 3.956 21.876L4.1 21.252C4.356 20.996 4.404 20.756 4.244 20.532C4.276 20.5 4.436 20.388 4.724 20.196C4.756 20.196 4.82 20.244 4.916 20.34L4.628 21.204C4.596 21.204 4.548 21.236 4.484 21.3C4.548 21.492 4.564 21.684 4.532 21.876L4.436 22.452L4.532 23.508C4.532 23.54 4.564 23.556 4.628 23.556C4.596 23.62 4.58 23.684 4.58 23.748C4.58 23.78 4.58 23.796 4.58 23.796L4.82 24.948L4.916 25.044C4.98 25.3 5.108 25.556 5.3 25.812C5.364 25.78 5.412 25.764 5.444 25.764C5.476 25.732 5.492 25.716 5.492 25.716L5.732 25.764C5.732 25.796 5.748 25.828 5.78 25.86H5.972L6.068 25.956C6.132 25.924 6.196 25.844 6.26 25.716C6.58 25.812 6.788 25.988 6.884 26.244C7.236 26.244 7.46 26.228 7.556 26.196C7.652 26.26 7.716 26.372 7.748 26.532C7.876 26.468 7.94 26.436 7.94 26.436C8.004 26.436 8.068 26.452 8.132 26.484C8.228 26.516 8.292 26.532 8.324 26.532C8.292 26.532 8.34 26.484 8.468 26.388H8.804C8.868 26.548 8.964 26.628 9.092 26.628C9.156 26.628 9.236 26.612 9.332 26.58C9.428 26.516 9.492 26.484 9.524 26.484C9.588 26.484 9.668 26.532 9.764 26.628C9.86 26.724 9.924 26.772 9.956 26.772L10.148 26.724C10.148 26.788 10.18 26.852 10.244 26.916C10.244 26.916 10.42 26.884 10.772 26.82C10.804 26.788 10.852 26.756 10.916 26.724C10.98 26.66 11.044 26.628 11.108 26.628C11.524 26.852 11.812 26.964 11.972 26.964C12.036 26.964 12.1 26.932 12.164 26.868V27.012C12.388 26.884 12.5 26.82 12.5 26.82L13.124 27.012C13.252 27.012 13.428 26.9 13.652 26.676C13.748 26.772 13.844 26.82 13.94 26.82C13.972 26.82 13.988 26.804 13.988 26.772H14.036C14.068 26.772 14.1 26.804 14.132 26.868C14.196 26.9 14.244 26.916 14.276 26.916C14.308 26.916 14.356 26.916 14.42 26.916C14.484 26.916 14.58 26.9 14.708 26.868H15.092C15.284 26.868 15.46 26.788 15.62 26.628C15.716 26.852 15.812 26.964 15.908 26.964H17.06C17.028 26.996 17.076 27.012 17.204 27.012C17.236 27.012 17.284 26.996 17.348 26.964C17.412 26.932 17.46 26.916 17.492 26.916C17.556 26.916 17.588 26.932 17.588 26.964C17.62 26.996 17.652 27.012 17.684 27.012C17.716 27.012 17.812 26.996 17.972 26.964C18.132 26.9 18.26 26.868 18.356 26.868C18.388 26.868 18.404 26.884 18.404 26.916C18.436 26.948 18.468 26.964 18.5 26.964C18.532 26.964 18.58 26.948 18.644 26.916C18.74 26.852 18.804 26.82 18.836 26.82C18.868 26.82 18.98 26.852 19.172 26.916L19.268 26.82C19.3 26.852 19.428 26.868 19.652 26.868C19.684 26.868 19.7 26.852 19.7 26.82C19.732 26.788 19.78 26.772 19.844 26.772C19.876 26.772 19.924 26.788 19.988 26.82C20.084 26.852 20.164 26.868 20.228 26.868L20.66 26.772C20.82 26.772 20.916 26.756 20.948 26.724L21.044 26.82C21.108 26.724 21.188 26.676 21.284 26.676C21.316 26.676 21.332 26.692 21.332 26.724C21.332 26.756 21.364 26.772 21.428 26.772C21.46 26.772 21.46 26.756 21.428 26.724C21.428 26.692 21.492 26.66 21.62 26.628H21.764C21.796 26.628 21.86 26.628 21.956 26.628C22.052 26.596 22.18 26.58 22.34 26.58H22.868C22.9 26.58 22.916 26.564 22.916 26.532C22.948 26.468 22.98 26.436 23.012 26.436H23.204C23.268 26.468 23.332 26.484 23.396 26.484L23.588 26.34C23.844 26.308 24.02 26.292 24.116 26.292C24.244 26.26 24.292 26.244 24.26 26.244C24.708 26.116 25.028 26.02 25.22 25.956C25.444 25.892 25.54 25.86 25.508 25.86C25.508 25.892 25.572 25.924 25.7 25.956C25.732 25.924 25.748 25.844 25.748 25.716C25.748 25.588 25.876 25.524 26.132 25.524C26.196 25.524 26.292 25.556 26.42 25.62C26.42 25.652 26.452 25.764 26.516 25.956C26.388 26.18 26.164 26.292 25.844 26.292C25.812 26.292 25.78 26.276 25.748 26.244H25.7C25.636 26.244 25.492 26.308 25.268 26.436C25.076 26.564 24.964 26.628 24.932 26.628C24.836 26.628 24.756 26.676 24.692 26.772L24.548 26.676C24.164 26.676 23.684 26.756 23.108 26.916C22.82 27.012 22.724 27.06 22.82 27.06C22.724 27.06 22.628 27.044 22.532 27.012H22.292C22.26 27.012 22.228 27.028 22.196 27.06C22.196 27.092 22.164 27.108 22.1 27.108C22.068 27.108 22.052 27.092 22.052 27.06H22.004C21.908 27.06 21.86 27.108 21.86 27.204C21.796 27.14 21.732 27.108 21.668 27.108L21.092 27.252C21.028 27.252 20.996 27.236 20.996 27.204L20.948 27.156C20.916 27.156 20.852 27.188 20.756 27.252C20.692 27.284 20.644 27.3 20.612 27.3H20.516C20.516 27.268 20.5 27.252 20.468 27.252C20.372 27.252 20.26 27.268 20.132 27.3C20.004 27.332 19.828 27.428 19.604 27.588C19.508 27.492 19.444 27.444 19.412 27.444C19.316 27.444 19.204 27.476 19.076 27.54C18.98 27.604 18.916 27.636 18.884 27.636H18.692C18.628 27.604 18.564 27.588 18.5 27.588C18.468 27.588 18.42 27.604 18.356 27.636C18.292 27.668 18.244 27.684 18.212 27.684C18.18 27.684 18.148 27.668 18.116 27.636C18.084 27.604 18.036 27.588 17.972 27.588C17.94 27.588 17.908 27.604 17.876 27.636C17.844 27.668 17.812 27.684 17.78 27.684C17.748 27.684 17.716 27.668 17.684 27.636C17.652 27.604 17.604 27.588 17.54 27.588C17.444 27.588 17.348 27.62 17.252 27.684C17.188 27.716 17.156 27.732 17.156 27.732H17.108C16.98 27.732 16.884 27.652 16.82 27.492C16.564 27.556 16.388 27.62 16.292 27.684C16.324 27.716 16.324 27.732 16.292 27.732C16.228 27.732 16.228 27.716 16.292 27.684C16.26 27.652 16.228 27.62 16.196 27.588C16.164 27.684 16.1 27.732 16.004 27.732C15.972 27.732 15.94 27.732 15.908 27.732C15.876 27.7 15.828 27.668 15.764 27.636C15.732 27.668 15.716 27.78 15.716 27.972C15.556 27.812 15.412 27.732 15.284 27.732C15.348 27.732 15.3 27.764 15.14 27.828C15.044 27.7 14.964 27.636 14.9 27.636H14.612L14.468 27.732L13.988 27.636C13.892 27.636 13.844 27.668 13.844 27.732L13.7 27.636C13.636 27.7 13.572 27.732 13.508 27.732C13.508 27.732 13.396 27.668 13.172 27.54C13.076 27.636 13.028 27.732 13.028 27.828H12.884L12.788 27.732C12.756 27.764 12.74 27.812 12.74 27.876L12.644 27.732C12.612 27.732 12.596 27.748 12.596 27.78C12.596 27.716 12.532 27.684 12.404 27.684C12.34 27.684 12.292 27.7 12.26 27.732C12.26 27.7 12.196 27.636 12.068 27.54L11.924 27.636C11.86 27.636 11.828 27.668 11.828 27.732C11.572 27.572 11.412 27.492 11.348 27.492C11.38 27.492 11.316 27.524 11.156 27.588C11.06 27.492 10.948 27.444 10.82 27.444C10.788 27.444 10.708 27.492 10.58 27.588C10.484 27.652 10.404 27.684 10.34 27.684C10.18 27.684 10.036 27.652 9.908 27.588C9.812 27.524 9.748 27.492 9.716 27.492C9.78 27.492 9.7 27.524 9.476 27.588C9.54 27.524 9.54 27.476 9.476 27.444C9.444 27.444 9.428 27.476 9.428 27.54H9.236L9.092 27.348L8.66 27.492L7.892 27.252C6.932 27.252 6.42 27.268 6.356 27.3C6.452 27.428 6.596 27.572 6.788 27.732V27.876C6.916 27.94 7.044 28.036 7.172 28.164C7.3 28.292 7.444 28.436 7.604 28.596C7.7 28.788 7.924 28.964 8.276 29.124C8.34 29.156 8.436 29.172 8.564 29.172C8.628 29.172 8.676 29.156 8.708 29.124H8.948V29.22C8.948 29.316 9.012 29.412 9.14 29.508C9.3 29.636 9.38 29.732 9.38 29.796C9.38 29.86 9.364 29.908 9.332 29.94C9.78 30.132 9.988 30.228 9.956 30.228C9.988 30.228 10.036 30.196 10.1 30.132C10.196 30.1 10.26 30.084 10.292 30.084C10.388 30.084 10.484 30.212 10.58 30.468L10.724 30.324H10.868C10.868 30.388 10.852 30.436 10.82 30.468C10.916 30.5 10.996 30.516 11.06 30.516C11.124 30.516 11.348 30.596 11.732 30.756C11.764 30.756 11.812 30.724 11.876 30.66C11.94 30.788 12.004 30.9 12.068 30.996C12.132 31.124 12.228 31.188 12.356 31.188H12.452C12.452 31.156 12.484 31.14 12.548 31.14C12.58 31.14 12.58 31.156 12.548 31.188C12.548 31.22 12.564 31.236 12.596 31.236C12.628 31.236 12.66 31.204 12.692 31.14C12.724 31.108 12.756 31.092 12.788 31.092C12.852 31.092 12.932 31.124 13.028 31.188C13.124 31.284 13.188 31.364 13.22 31.428C13.284 31.332 13.332 31.284 13.364 31.284C13.396 31.284 13.476 31.316 13.604 31.38C13.764 31.444 13.876 31.476 13.94 31.476C14.068 31.476 14.196 31.428 14.324 31.332C14.452 31.524 14.628 31.684 14.852 31.812L14.948 31.908C14.916 31.94 14.9 32.052 14.9 32.244L15.14 32.148L15.188 32.34C15.188 32.5 15.124 32.58 14.996 32.58H14.9C14.9 32.644 14.932 32.676 14.996 32.676C15.028 32.676 15.076 32.676 15.14 32.676C15.204 32.676 15.268 32.66 15.332 32.628H15.668C15.732 32.628 15.764 32.548 15.764 32.388H16.196C16.228 32.388 16.26 32.356 16.292 32.292C16.356 32.26 16.404 32.244 16.436 32.244L16.868 32.388L17.06 32.004C17.188 32.068 17.316 32.1 17.444 32.1C17.604 32.1 17.86 32.148 18.212 32.244L18.308 32.388V32.244C18.404 32.212 18.628 32.196 18.98 32.196C18.916 32.196 19.076 32.292 19.46 32.484C19.652 32.388 19.732 32.324 19.7 32.292H19.652C19.684 32.292 19.7 32.292 19.7 32.292C19.732 32.324 19.764 32.34 19.796 32.34C19.828 32.372 19.86 32.388 19.892 32.388C20.02 32.26 20.068 32.196 20.036 32.196C20.068 32.196 20.1 32.196 20.132 32.196C20.164 32.228 20.212 32.26 20.276 32.292C20.276 32.324 20.292 32.372 20.324 32.436C20.388 32.372 20.468 32.34 20.564 32.34C20.596 32.34 20.596 32.276 20.564 32.148C20.628 32.148 20.708 32.116 20.804 32.052C20.9 32.02 20.964 32.004 20.996 32.004C21.028 32.004 21.172 32.068 21.428 32.196C21.684 32.324 21.828 32.388 21.86 32.388H21.908C22.036 32.26 22.1 32.164 22.1 32.1C22.164 32.1 22.244 32.148 22.34 32.244C22.5 32.084 22.628 32.004 22.724 32.004C22.756 32.004 22.788 32.02 22.82 32.052C22.852 32.084 22.884 32.1 22.916 32.1C23.012 32.1 23.172 31.988 23.396 31.764H23.54C23.572 31.796 23.604 31.812 23.636 31.812H23.732C23.764 31.94 23.764 32.116 23.732 32.34L23.876 32.532C23.94 32.468 23.988 32.468 24.02 32.532L24.116 32.388V32.148C24.116 32.148 24.132 32.116 24.164 32.052C24.196 32.02 24.244 32.004 24.308 32.004C24.34 32.004 24.372 32.02 24.404 32.052C24.436 31.988 24.484 31.908 24.548 31.812C24.612 31.716 24.676 31.604 24.74 31.476C24.74 31.508 24.772 31.524 24.836 31.524C24.996 31.556 25.108 31.604 25.172 31.668C25.236 31.572 25.364 31.524 25.556 31.524L25.7 31.668L26.036 31.476V31.284L26.324 31.044C26.9 30.788 27.268 30.66 27.428 30.66L27.524 30.756C27.556 30.756 27.572 30.708 27.572 30.612C27.604 30.644 27.7 30.612 27.86 30.516C27.988 30.58 28.036 30.628 28.004 30.66C27.972 30.692 27.988 30.708 28.052 30.708H28.388C28.548 30.708 28.644 30.708 28.676 30.708C28.74 30.74 28.788 30.756 28.82 30.756C28.884 30.756 28.948 30.708 29.012 30.612C29.076 30.548 29.316 30.372 29.732 30.084C30.148 29.828 30.42 29.7 30.548 29.7C30.516 29.668 30.516 29.604 30.548 29.508C30.548 29.476 30.548 29.46 30.548 29.46V29.508C30.548 29.508 30.628 29.508 30.788 29.508C30.884 29.508 30.948 29.46 30.98 29.364L31.076 29.46L31.364 29.316C31.428 29.252 31.396 29.14 31.268 28.98V28.644L31.46 28.596C31.524 28.596 31.588 28.612 31.652 28.644C31.748 28.708 31.812 28.74 31.844 28.74C31.972 28.676 32.18 28.58 32.468 28.452C32.756 28.324 32.916 28.196 32.948 28.068V28.02C32.948 27.924 32.98 27.796 33.044 27.636C33.14 27.476 33.22 27.396 33.284 27.396C33.348 27.396 33.396 27.412 33.428 27.444H33.524C33.588 27.444 33.732 27.348 33.956 27.156C33.988 27.124 34.004 27.076 34.004 27.012C34.004 26.948 34.02 26.868 34.052 26.772C34.052 26.772 34.164 26.852 34.388 27.012C34.42 27.012 34.452 26.996 34.484 26.964C34.548 26.9 34.612 26.868 34.676 26.868V26.196C34.74 26.164 34.804 26.132 34.868 26.1C34.964 26.068 35.076 26.02 35.204 25.956C35.3 25.892 35.396 25.748 35.492 25.524H35.78C35.78 25.46 35.812 25.348 35.876 25.188C35.844 25.188 35.844 25.172 35.876 25.14V25.188C35.876 25.188 35.908 25.188 35.972 25.188C35.876 25.188 35.924 25.156 36.116 25.092C36.052 24.868 35.972 24.74 35.876 24.708C35.908 24.676 35.924 24.628 35.924 24.564H36.212C36.212 24.468 36.18 24.388 36.116 24.324C36.18 24.228 36.292 24.132 36.452 24.036C36.644 23.94 36.74 23.828 36.74 23.7C36.74 23.636 36.74 23.572 36.74 23.508C36.74 23.412 36.708 23.316 36.644 23.22C36.644 23.156 36.66 23.092 36.692 23.028H36.74C36.964 23.028 37.076 22.756 37.076 22.212C37.076 21.828 37.012 21.524 36.884 21.3C36.884 21.268 36.9 21.236 36.932 21.204C36.9 21.14 36.82 20.996 36.692 20.772C36.596 20.548 36.42 20.276 36.164 19.956L35.732 19.38C35.284 18.932 35.028 18.708 34.964 18.708C34.9 18.708 34.884 18.724 34.916 18.756C34.916 18.788 34.916 18.804 34.916 18.804C34.916 18.804 34.916 18.788 34.916 18.756C34.82 18.596 34.708 18.516 34.58 18.516C34.548 18.516 34.516 18.532 34.484 18.564C34.452 18.34 34.372 18.228 34.244 18.228H34.196C34.196 18.26 34.18 18.276 34.148 18.276C34.116 18.276 34.052 18.228 33.956 18.132C33.86 18.036 33.796 17.988 33.764 17.988H33.716C33.716 18.02 33.7 18.036 33.668 18.036C33.764 18.036 33.732 17.988 33.572 17.892C33.476 17.892 33.188 17.796 32.708 17.604C32.26 17.412 31.924 17.316 31.7 17.316C31.7 17.22 31.668 17.172 31.604 17.172C31.572 17.172 31.556 17.188 31.556 17.22C31.556 17.252 31.54 17.268 31.508 17.268C31.476 17.268 31.268 17.188 30.884 17.028H30.644C30.612 17.028 30.58 17.028 30.548 17.028C30.516 16.996 30.42 16.964 30.26 16.932C30.228 16.932 30.196 16.948 30.164 16.98L30.068 16.836C30.068 16.836 30.036 16.804 29.972 16.74C29.908 16.804 29.844 16.836 29.78 16.836C29.716 16.836 29.572 16.788 29.348 16.692C29.156 16.596 29.044 16.548 29.012 16.548C28.948 16.548 28.868 16.564 28.772 16.596H28.484C28.452 16.596 28.42 16.58 28.388 16.548C28.356 16.516 28.324 16.5 28.292 16.5C28.228 16.5 28.116 16.5 27.956 16.5C27.828 16.5 27.668 16.484 27.476 16.452L27.332 16.308H27.236L27.14 16.212L26.948 16.356C26.788 16.196 26.612 16.116 26.42 16.116H26.228C26.164 16.148 26.1 16.164 26.036 16.164C26.004 16.164 25.988 16.148 25.988 16.116C26.02 16.084 26.02 16.068 25.988 16.068C25.956 16.068 25.924 16.052 25.892 16.02C25.892 15.988 25.876 15.972 25.844 15.972L25.508 16.068C25.476 16.068 25.396 16.036 25.268 15.972C25.14 15.876 25.044 15.828 24.98 15.828H24.884C24.852 15.828 24.74 15.812 24.548 15.78C24.388 15.748 24.148 15.7 23.828 15.636L22.772 15.396L22.628 15.444C22.532 15.444 22.244 15.332 21.764 15.108C21.316 14.884 21.06 14.772 20.996 14.772H20.9C20.868 14.804 20.836 14.82 20.804 14.82C20.676 14.82 20.484 14.74 20.228 14.58V14.676C20.068 14.612 19.508 14.436 18.548 14.148C18.036 13.892 17.316 13.508 16.388 12.996C16.228 12.804 16.116 12.596 16.052 12.372V11.988C15.924 11.7 15.78 11.508 15.62 11.412C15.684 11.22 15.652 11.092 15.524 11.028C15.588 10.868 15.572 10.708 15.476 10.548L15.62 9.54C15.684 9.476 15.732 9.364 15.764 9.204C15.796 9.012 15.908 8.644 16.1 8.1C16.132 8.036 16.148 7.972 16.148 7.908C16.148 7.844 16.164 7.764 16.196 7.668C16.196 7.7 16.212 7.732 16.244 7.764C16.276 7.732 16.324 7.652 16.388 7.524C16.452 7.364 16.58 7.236 16.772 7.14C16.772 7.076 16.804 6.98 16.868 6.852C16.964 6.724 17.14 6.484 17.396 6.132C17.62 6.036 17.876 5.78 18.164 5.364C18.452 4.948 18.708 4.66 18.932 4.5L19.364 4.356L19.556 4.116L20.564 3.54C20.628 3.476 20.772 3.428 20.996 3.396L21.092 3.3C21.22 3.3 21.284 3.252 21.284 3.156L21.38 3.252C21.38 3.22 21.556 3.124 21.908 2.964L22.292 2.772C22.388 2.676 22.516 2.612 22.676 2.58C22.74 2.548 22.804 2.532 22.868 2.532C22.932 2.532 23.012 2.516 23.108 2.484C23.14 2.484 23.172 2.452 23.204 2.388C23.268 2.324 23.316 2.292 23.348 2.292C23.38 2.292 23.396 2.308 23.396 2.34H23.444C23.412 2.34 23.508 2.276 23.732 2.148C24.18 1.828 24.74 1.652 25.412 1.62C25.444 1.62 25.492 1.588 25.556 1.524C25.62 1.46 25.668 1.428 25.7 1.428H25.796C25.828 1.46 25.86 1.476 25.892 1.476C25.956 1.476 26.02 1.46 26.084 1.428C26.148 1.364 26.212 1.332 26.276 1.332C26.148 1.332 26.292 1.268 26.708 1.14C27.156 0.979998 27.7 0.899998 28.34 0.899998C28.436 0.899998 28.532 0.883998 28.628 0.851998H28.964C28.996 0.851998 29.012 0.835999 29.012 0.803999H29.06C29.22 0.803999 29.38 0.787999 29.54 0.756C29.7 0.723998 29.796 0.643998 29.828 0.516L29.924 0.611999C30.02 0.451999 30.1 0.451999 30.164 0.611999V0.516H30.404C30.436 0.516 30.452 0.532 30.452 0.563999C30.484 0.595999 30.516 0.611999 30.548 0.611999C30.644 0.611999 30.692 0.579999 30.692 0.516L30.884 0.659998C31.14 0.371998 31.332 0.227998 31.46 0.227998L31.796 0.323999C31.86 0.323999 31.892 0.308 31.892 0.276C31.892 0.243999 31.908 0.227998 31.94 0.227998C31.972 0.227998 32.068 0.259998 32.228 0.323999C32.42 0.387999 32.548 0.419998 32.612 0.419998C32.644 0.419998 32.708 0.387999 32.804 0.323999C32.9 0.227999 32.964 0.179998 32.996 0.179998C33.22 0.211998 33.38 0.259998 33.476 0.323999C33.604 0.355999 33.796 0.419999 34.052 0.516C34.212 0.323998 34.308 0.227998 34.34 0.227998C34.404 0.227998 34.564 0.291998 34.82 0.419998L35.012 0.276C34.98 0.308 34.964 0.355999 34.964 0.419998C34.996 0.451998 35.028 0.467998 35.06 0.467998H35.348C35.412 0.467998 35.412 0.419998 35.348 0.323999C35.476 0.452 35.588 0.516 35.684 0.516C35.716 0.516 35.732 0.499999 35.732 0.467998H35.78C35.748 0.467998 35.796 0.515998 35.924 0.611999C35.892 0.611999 35.908 0.627998 35.972 0.659998C36.036 0.659998 36.132 0.675998 36.26 0.707997C36.324 0.771998 36.372 0.899999 36.404 1.092C36.436 1.06 36.452 1.012 36.452 0.948C36.452 1.012 36.468 1.06 36.5 1.092L37.508 1.524C37.508 1.716 37.652 1.908 37.94 2.1C37.908 2.228 37.988 2.468 38.18 2.82C38.404 3.172 38.484 3.412 38.42 3.54C38.548 3.764 38.612 3.956 38.612 4.116C38.612 4.436 38.564 4.74 38.468 5.028C38.372 5.156 38.26 5.364 38.132 5.652C38.036 5.94 37.78 6.26 37.364 6.612C36.884 7.028 36.596 7.348 36.5 7.572L35.204 8.58C35.14 8.644 35.092 8.708 35.06 8.772C35.028 8.804 35.012 8.82 35.012 8.82C34.948 8.82 34.916 8.804 34.916 8.772C34.948 8.74 34.932 8.724 34.868 8.724C34.9 8.724 34.708 8.836 34.292 9.06L33.956 9.156C33.86 9.22 33.732 9.316 33.572 9.444C33.444 9.54 33.268 9.668 33.044 9.828C32.916 9.86 32.772 9.924 32.612 10.02C32.452 10.084 32.26 10.18 32.036 10.308C32.036 10.212 31.988 10.164 31.892 10.164L32.804 9.396C32.868 9.396 32.948 9.38 33.044 9.348L33.908 8.58L34.292 8.388C34.42 8.356 34.484 8.26 34.484 8.1H34.58C34.932 8.1 35.204 7.796 35.396 7.188C35.492 7.188 35.556 7.204 35.588 7.236C35.62 7.14 35.684 7.044 35.78 6.948C35.876 6.852 36.004 6.724 36.164 6.564C36.356 6.308 36.564 6.004 36.788 5.652C37.012 5.268 37.236 4.868 37.46 4.452C37.46 4.452 37.428 4.388 37.364 4.26C37.396 4.196 37.46 4.116 37.556 4.02C37.652 3.892 37.7 3.812 37.7 3.78C37.7 3.78 37.668 3.716 37.604 3.588V2.916C37.604 2.692 37.492 2.468 37.268 2.244C37.204 2.276 37.156 2.292 37.124 2.292L37.172 2.1C37.172 2.004 36.964 1.844 36.548 1.62C36.036 1.3 35.716 1.14 35.588 1.14H35.444C35.412 1.172 35.364 1.188 35.3 1.188C35.236 1.188 35.124 1.156 34.964 1.092C34.836 1.028 34.756 0.995999 34.724 0.995999C34.692 0.995999 34.676 1.012 34.676 1.044C34.676 1.076 34.66 1.092 34.628 1.092L33.572 0.851998C33.54 0.851998 33.524 0.867998 33.524 0.899998C33.524 0.931999 33.508 0.948 33.476 0.948C33.444 0.948 33.396 0.931999 33.332 0.899998C33.268 0.867998 33.204 0.851998 33.14 0.851998C33.108 0.851998 33.076 0.867998 33.044 0.899998C33.044 0.931999 33.028 0.948 32.996 0.948C32.964 0.948 32.948 0.931999 32.948 0.899998H32.852C32.82 0.899998 32.804 0.915998 32.804 0.948C32.804 0.98 32.788 0.995999 32.756 0.995999C32.724 0.995999 32.692 0.98 32.66 0.948C32.66 0.915998 32.644 0.899998 32.612 0.899998C32.58 0.899998 32.564 0.915998 32.564 0.948H32.612L31.844 1.092C31.78 1.092 31.7 1.092 31.604 1.092C31.508 1.092 31.396 1.108 31.268 1.14L31.124 1.044C30.612 1.236 30.228 1.332 29.972 1.332C29.908 1.332 29.876 1.316 29.876 1.284H29.828C29.764 1.284 29.54 1.348 29.156 1.476C28.804 1.604 28.612 1.668 28.58 1.668C28.548 1.668 28.548 1.652 28.58 1.62C28.58 1.588 28.564 1.572 28.532 1.572C28.564 1.572 28.58 1.572 28.58 1.572C28.58 1.54 28.58 1.524 28.58 1.524C28.58 1.492 28.468 1.508 28.244 1.572C28.02 1.636 27.796 1.716 27.572 1.812C27.38 1.876 27.268 1.94 27.236 2.004H27.188C27.188 1.972 27.172 1.956 27.14 1.956C26.948 1.956 26.772 2.084 26.612 2.34C26.612 2.308 26.628 2.276 26.66 2.244L26.468 2.148L26.228 2.484L26.132 2.388C26.26 2.388 25.988 2.516 25.316 2.772C25.284 2.804 25.268 2.82 25.268 2.82C25.268 2.82 25.268 2.836 25.268 2.868C25.236 2.836 25.236 2.82 25.268 2.82C25.236 2.82 25.22 2.82 25.22 2.82C25.22 2.852 24.98 2.964 24.5 3.156L23.972 3.348L23.636 3.588L20.9 5.604C20.58 5.828 20.34 6.084 20.18 6.372C20.052 6.628 19.892 6.916 19.7 7.236L19.556 7.14C19.524 7.3 19.364 7.46 19.076 7.62C19.108 7.588 19.124 7.668 19.124 7.86C19.124 7.924 19.028 8.036 18.836 8.196V8.34C18.836 8.532 18.852 8.692 18.884 8.82C18.852 8.916 18.82 9.044 18.788 9.204C18.788 9.332 18.724 9.572 18.596 9.924C18.596 9.956 18.596 10.004 18.596 10.068C18.596 10.132 18.612 10.196 18.644 10.26C18.612 10.388 18.58 10.484 18.548 10.548C18.548 10.58 18.548 10.58 18.548 10.548C18.548 10.836 18.564 10.948 18.596 10.884C18.948 11.012 19.092 11.3 19.028 11.748C19.188 11.908 19.268 11.988 19.268 11.988C19.3 11.988 19.316 11.972 19.316 11.94H19.364C19.428 11.94 19.508 11.988 19.604 12.084C19.7 12.18 19.828 12.228 19.988 12.228C19.956 12.26 19.972 12.372 20.036 12.564C20.132 12.756 20.212 12.852 20.276 12.852C20.308 12.852 20.324 12.836 20.324 12.804H20.372C20.404 12.804 20.548 12.9 20.804 13.092C21.06 13.284 21.204 13.38 21.236 13.38H21.284C21.284 13.348 21.3 13.332 21.332 13.332C21.364 13.332 21.54 13.46 21.86 13.716C22.212 13.94 22.42 14.052 22.484 14.052C22.516 14.052 22.724 13.972 23.108 13.812L23.684 14.436C23.716 14.404 23.732 14.356 23.732 14.292C23.988 14.58 24.228 14.724 24.452 14.724C24.516 14.724 24.58 14.756 24.644 14.82L24.74 14.676C24.74 14.74 24.772 14.772 24.836 14.772C24.868 14.772 24.884 14.756 24.884 14.724H24.932C25.348 14.98 25.572 15.108 25.604 15.108C25.636 15.108 25.684 15.092 25.748 15.06C25.812 15.028 25.86 15.012 25.892 15.012C25.956 15.012 26.068 15.092 26.228 15.252C26.26 15.22 26.276 15.188 26.276 15.156C26.436 15.316 26.708 15.396 27.092 15.396C27.38 15.588 27.62 15.684 27.812 15.684C28.004 15.684 28.116 15.7 28.148 15.732L28.484 15.876C28.516 15.876 28.596 15.86 28.724 15.828C28.852 15.796 28.948 15.78 29.012 15.78C29.364 15.844 29.604 15.908 29.732 15.972C29.86 16.004 29.876 16.02 29.78 16.02C29.812 16.02 29.844 16.004 29.876 15.972L29.972 16.068L30.404 16.356C30.468 16.356 30.516 16.404 30.548 16.5L30.788 16.308C30.884 16.404 30.9 16.452 30.836 16.452L30.74 16.548L30.932 16.692C31.092 16.564 31.252 16.5 31.412 16.5C31.38 16.5 31.364 16.5 31.364 16.5C31.396 16.5 31.428 16.5 31.46 16.5H31.412C31.284 16.5 31.38 16.548 31.7 16.644C31.892 16.708 32.004 16.772 32.036 16.836H32.564C32.628 17.028 32.724 17.124 32.852 17.124C32.916 17.124 32.932 17.108 32.9 17.076C32.9 17.044 32.916 17.028 32.948 17.028C33.012 17.028 33.14 17.076 33.332 17.172C33.364 17.172 33.412 17.22 33.476 17.316C33.54 17.412 33.604 17.46 33.668 17.46C33.7 17.46 33.716 17.444 33.716 17.412H33.764C33.828 17.412 33.924 17.524 34.052 17.748C34.084 17.716 34.1 17.684 34.1 17.652L34.532 17.94C34.564 17.94 34.612 17.94 34.676 17.94C34.74 17.94 34.82 17.956 34.916 17.988C34.948 18.02 34.996 18.1 35.06 18.228C35.156 18.324 35.236 18.372 35.3 18.372C35.332 18.372 35.348 18.356 35.348 18.324H35.396C35.428 18.324 35.46 18.372 35.492 18.468C35.524 18.532 35.572 18.564 35.636 18.564C35.7 18.532 35.748 18.516 35.78 18.516C35.78 18.548 35.908 18.692 36.164 18.948C36.132 18.948 36.26 19.14 36.548 19.524C36.708 19.684 36.836 19.796 36.932 19.86C37.06 19.892 37.236 20.052 37.46 20.34C37.428 20.372 37.412 20.468 37.412 20.628L37.844 21.012C37.844 21.044 37.924 21.268 38.084 21.684C38.244 22.068 38.324 22.452 38.324 22.836C38.324 23.06 38.292 23.284 38.228 23.508C38.196 23.732 38.148 23.972 38.084 24.228C38.02 24.516 38.004 24.676 38.036 24.708C37.94 24.74 37.828 24.932 37.7 25.284C37.572 25.668 37.348 26.1 37.028 26.58C36.996 26.612 36.9 26.724 36.74 26.916C36.612 27.076 36.404 27.316 36.116 27.636L35.972 28.02C35.908 28.116 35.812 28.228 35.684 28.356C35.556 28.484 35.412 28.628 35.252 28.788L34.676 29.124C34.132 29.508 33.86 29.748 33.86 29.844V29.796H33.812C33.876 29.796 33.796 29.86 33.572 29.988C33.572 30.02 33.54 30.068 33.476 30.132C33.444 30.228 33.348 30.34 33.188 30.468C33.124 30.468 32.996 30.5 32.804 30.564C32.74 30.628 32.644 30.708 32.516 30.804C32.388 30.932 32.244 31.06 32.084 31.188L31.604 31.332C31.604 31.332 31.524 31.412 31.364 31.572C31.236 31.732 31.108 31.812 30.98 31.812C31.012 31.812 30.996 31.78 30.932 31.716H30.884C30.852 31.716 30.836 31.78 30.836 31.908H30.74C30.772 31.908 30.676 31.972 30.452 32.1C30.324 32.196 30.132 32.292 29.876 32.388C29.62 32.484 29.348 32.644 29.06 32.868C28.9 32.868 28.804 32.884 28.772 32.916L28.676 32.82C28.644 32.948 28.548 33.012 28.388 33.012C28.356 33.012 28.34 32.996 28.34 32.964H28.292C28.26 32.964 28.18 33.012 28.052 33.108C27.956 33.236 27.892 33.3 27.86 33.3L27.38 33.204C27.38 33.204 27.3 33.3 27.14 33.492C26.98 33.684 26.788 33.78 26.564 33.78C26.532 33.78 26.516 33.764 26.516 33.732L26.468 33.684C26.404 33.684 26.356 33.7 26.324 33.732C26.292 33.796 26.26 33.828 26.228 33.828H26.18C26.18 33.796 26.164 33.78 26.132 33.78C26.1 33.78 26.036 33.812 25.94 33.876C25.844 33.94 25.764 33.972 25.7 33.972H25.604C25.572 33.94 25.54 33.924 25.508 33.924C25.38 33.924 25.092 34.052 24.644 34.308L24.452 34.02C24.356 34.244 24.228 34.356 24.068 34.356C24.004 34.356 23.924 34.308 23.828 34.212H23.732C23.668 34.212 23.636 34.228 23.636 34.26C23.668 34.292 23.668 34.308 23.636 34.308H23.588C23.588 34.276 23.572 34.26 23.54 34.26C23.508 34.26 23.38 34.324 23.156 34.452C22.932 34.58 22.772 34.644 22.676 34.644C22.676 34.58 22.612 34.532 22.484 34.5C22.388 34.468 22.26 34.404 22.1 34.308L21.908 34.548H21.86L21.764 34.644C21.54 34.612 21.316 34.5 21.092 34.308V34.404H20.804C20.708 34.372 20.628 34.356 20.564 34.356C20.532 34.356 20.436 34.42 20.276 34.548C20.148 34.708 20.052 34.788 19.988 34.788ZM27.188 25.668C27.092 25.732 27.012 25.684 26.948 25.524L26.996 25.14H27.284C27.284 25.204 27.268 25.284 27.236 25.38C27.236 25.444 27.22 25.54 27.188 25.668ZM8.708 29.7H8.804V29.508H8.708V29.7ZM43.2564 28.884C43.2884 28.884 43.2564 28.836 43.1604 28.74C43.0964 28.804 42.9524 28.836 42.7284 28.836C42.6644 28.836 42.5684 28.804 42.4404 28.74C42.3444 28.708 42.2804 28.692 42.2484 28.692C42.2164 28.692 42.1364 28.708 42.0084 28.74C41.9124 28.772 41.8324 28.788 41.7684 28.788C41.7364 28.788 41.6404 28.756 41.4804 28.692C41.3204 28.66 41.2084 28.644 41.1444 28.644C41.1124 28.228 40.7444 28.068 40.0404 28.164V28.068C40.0404 27.844 39.9924 27.668 39.8964 27.54C39.8004 27.412 39.7204 27.204 39.6564 26.916C39.6244 26.884 39.5604 26.82 39.4644 26.724C39.4004 26.596 39.3684 26.356 39.3684 26.004C39.3684 26.004 39.4004 25.94 39.4644 25.812C39.4964 25.78 39.4644 25.7 39.3684 25.572C39.4004 25.54 39.4644 25.284 39.5604 24.804C39.5924 24.644 39.6084 24.516 39.6084 24.42C39.6404 24.324 39.6564 24.244 39.6564 24.18C39.4644 24.02 39.3684 23.876 39.3684 23.748L39.5124 23.412C39.5444 23.444 39.6564 23.46 39.8484 23.46H40.0404C40.1044 23.364 40.1684 23.268 40.2324 23.172C40.3284 23.044 40.4404 22.916 40.5684 22.788C40.7604 22.788 40.9364 22.612 41.0964 22.26L41.0484 22.068C41.0804 22.004 41.1124 21.956 41.1444 21.924C41.1444 21.924 41.1604 21.924 41.1924 21.924C41.1924 21.924 41.1764 21.924 41.1444 21.924C41.1764 21.924 41.2244 21.94 41.2884 21.972C41.3204 21.94 41.3844 21.876 41.4804 21.78C41.5764 21.684 41.7364 21.556 41.9604 21.396C42.0564 21.268 42.2164 21.108 42.4404 20.916C42.8244 20.66 43.0324 20.532 43.0644 20.532C43.1284 20.532 43.2724 20.436 43.4964 20.244C43.5604 20.276 43.6084 20.308 43.6404 20.34C43.6724 20.34 43.6884 20.34 43.6884 20.34C43.7524 20.34 44.0084 20.228 44.4564 20.004C44.4244 20.132 44.4564 20.196 44.5524 20.196H44.8884C45.0484 20.1 45.1284 20.052 45.1284 20.052C45.4484 20.052 45.8324 20.228 46.2804 20.58C46.3124 20.612 46.3604 20.628 46.4244 20.628V21.396C46.3604 21.396 46.2964 21.364 46.2324 21.3L46.0404 21.732C46.1684 21.924 46.2324 22.02 46.2324 22.02C46.1684 22.052 46.0084 22.324 45.7524 22.836V23.22C45.6244 23.22 45.5124 23.236 45.4164 23.268C44.9044 23.62 44.6164 23.796 44.5524 23.796H44.4564C44.4244 23.764 44.3924 23.748 44.3604 23.748C44.2324 23.748 44.0564 23.812 43.8324 23.94C43.8004 23.972 43.7524 24.036 43.6884 24.132C43.6244 24.196 43.5444 24.228 43.4484 24.228H43.4004C43.4004 24.196 43.3844 24.18 43.3524 24.18C43.2884 24.18 43.1124 24.244 42.8244 24.372C42.5684 24.468 42.4244 24.516 42.3924 24.516H42.2964C42.2644 24.484 42.2324 24.468 42.2004 24.468L42.0564 24.612H41.7684C41.6404 24.612 41.5444 24.58 41.4804 24.516H40.8564C40.8564 24.644 40.8084 24.836 40.7124 25.092C40.6484 25.348 40.6164 25.492 40.6164 25.524C40.6164 25.62 40.7284 25.844 40.9524 26.196C40.9844 26.228 41.0484 26.308 41.1444 26.436C41.2404 26.532 41.3844 26.66 41.5764 26.82C41.6404 26.948 41.7364 27.076 41.8644 27.204C41.9284 27.236 41.9924 27.252 42.0564 27.252C42.1204 27.252 42.2004 27.268 42.2964 27.3L42.4404 27.492C42.5364 27.428 42.6804 27.428 42.8724 27.492L43.1124 27.636C43.2724 27.636 43.3524 27.636 43.3524 27.636C43.3524 27.604 43.3524 27.588 43.3524 27.588C43.3844 27.62 43.3844 27.636 43.3524 27.636C43.3844 27.668 43.4164 27.684 43.4484 27.684C43.4804 27.684 43.5124 27.668 43.5444 27.636C43.6084 27.572 43.6564 27.54 43.6884 27.54H43.7844C43.7844 27.572 43.8004 27.588 43.8324 27.588C43.9284 27.588 44.0404 27.524 44.1684 27.396C44.2644 27.428 44.3604 27.428 44.4564 27.396L44.5044 27.444V27.588C44.4404 27.62 44.3604 27.668 44.2644 27.732C44.1684 27.796 44.0404 27.86 43.8804 27.924V28.116C43.8804 28.148 43.9444 28.164 44.0724 28.164C44.6164 28.164 45.0484 28.004 45.3684 27.684C45.4324 27.716 45.4804 27.748 45.5124 27.78C45.5444 27.78 45.5604 27.78 45.5604 27.78C45.6244 27.78 45.6564 27.748 45.6564 27.684H45.8964C45.9604 27.652 46.0564 27.572 46.1844 27.444C46.3124 27.284 46.4404 27.204 46.5684 27.204L46.7604 27.252L46.9044 26.868L47.0484 26.964C47.1124 26.9 47.2564 26.868 47.4804 26.868C47.4804 26.868 47.4804 26.852 47.4804 26.82C47.4804 26.788 47.4964 26.756 47.5284 26.724C47.8484 26.66 48.2484 26.388 48.7284 25.908H48.9204L49.6404 25.332C49.6404 25.268 49.6884 25.172 49.7844 25.044C49.8164 25.044 49.8644 25.076 49.9284 25.14L50.3604 24.564C50.4564 24.564 50.5684 24.516 50.6964 24.42L50.8404 24.564L50.5044 24.996C50.3124 25.124 50.0724 25.316 49.7844 25.572C49.4964 25.828 49.1764 26.132 48.8244 26.484C48.6004 26.484 48.4724 26.548 48.4404 26.676C48.1524 26.804 47.9604 26.948 47.8644 27.108L47.7204 26.964C47.6884 26.996 47.5924 27.076 47.4324 27.204C47.3044 27.3 47.0804 27.428 46.7604 27.588C46.6964 27.652 46.6004 27.748 46.4724 27.876C46.3444 27.972 46.2164 28.02 46.0884 28.02C46.0244 28.02 46.0084 28.004 46.0404 27.972H45.9924C45.8644 27.972 45.7364 28.02 45.6084 28.116C45.4804 28.212 45.4164 28.292 45.4164 28.356C45.3844 28.356 45.3364 28.324 45.2724 28.26C44.8564 28.484 44.6164 28.596 44.5524 28.596H44.4564L44.4084 28.548L43.6884 28.74C43.6884 28.74 43.6884 28.724 43.6884 28.692C43.6884 28.66 43.6724 28.628 43.6404 28.596L43.4964 28.788C43.4644 28.788 43.4164 28.804 43.3524 28.836C43.3204 28.868 43.2884 28.884 43.2564 28.884ZM42.1044 24.036C42.0724 23.94 42.1044 23.892 42.2004 23.892C42.2324 23.892 42.2484 23.908 42.2484 23.94H42.3444C42.3764 23.94 42.4404 23.892 42.5364 23.796C42.6644 23.7 42.7444 23.652 42.7764 23.652C42.8084 23.652 42.8564 23.668 42.9204 23.7C42.9844 23.732 43.0324 23.748 43.0644 23.748C43.0004 23.748 43.0804 23.636 43.3044 23.412L43.4484 23.508C44.1844 23.028 44.5524 22.612 44.5524 22.26C44.5524 21.844 44.3444 21.588 43.9284 21.492C43.5444 21.396 43.1764 21.3 42.8244 21.204C42.7604 21.268 42.6964 21.3 42.6324 21.3C42.4724 21.556 42.2964 21.748 42.1044 21.876C42.0404 21.876 41.8484 22.036 41.5284 22.356C41.5284 22.388 41.4324 22.532 41.2404 22.788C41.1764 23.012 41.1124 23.188 41.0484 23.316C41.0164 23.444 41.0004 23.54 41.0004 23.604C41.1284 23.828 41.2564 23.94 41.3844 23.94H41.4324C41.4644 23.908 41.4964 23.892 41.5284 23.892C41.6884 23.892 41.8804 23.94 42.1044 24.036ZM51.0324 24.324V24.228C51.0324 24.036 51.1284 23.924 51.3204 23.892C51.2884 24.02 51.1924 24.164 51.0324 24.324ZM53.7946 28.98C53.6346 28.82 53.4746 28.74 53.3146 28.74L52.9306 28.836C52.8986 28.836 52.8346 28.804 52.7386 28.74C52.6426 28.676 52.5786 28.644 52.5466 28.644C52.4506 28.644 52.4026 28.676 52.4026 28.74C52.2106 28.548 52.0506 28.452 51.9226 28.452H51.8746C51.8746 28.484 51.8426 28.5 51.7786 28.5C51.6826 28.5 51.5866 28.42 51.4906 28.26L51.2986 28.02C51.2666 28.02 51.1706 27.924 51.0106 27.732C50.8506 27.54 50.8026 27.236 50.8666 26.82V26.676C50.8346 26.612 50.7386 26.612 50.5786 26.676C50.5466 26.612 50.5146 26.548 50.4826 26.484C50.4506 26.388 50.4026 26.292 50.3386 26.196C50.3066 26.196 50.1626 26.324 49.9066 26.58L49.6186 26.724L49.3306 27.156C49.1066 27.284 48.9626 27.38 48.8986 27.444C48.8346 27.508 48.7866 27.54 48.7546 27.54H48.6106C48.4826 27.508 48.4186 27.444 48.4186 27.348C48.4186 27.284 48.4826 27.172 48.6106 27.012C48.7706 26.852 48.8826 26.772 48.9466 26.772C49.0106 26.804 49.0586 26.82 49.0906 26.82L49.1386 26.628C49.4586 26.5 49.6186 26.324 49.6186 26.1L49.9546 25.812C50.0826 25.812 50.1946 25.716 50.2906 25.524L50.4826 25.38L50.6746 24.42C50.7386 24.42 50.7866 24.388 50.8186 24.324C50.8506 24.26 50.9306 24.068 51.0586 23.748C51.0906 23.716 51.0906 23.604 51.0586 23.412C51.0586 23.412 51.0426 23.412 51.0106 23.412C51.0106 23.412 50.9946 23.396 50.9626 23.364C51.0586 23.236 51.0586 23.06 50.9626 22.836C50.9946 22.708 51.1226 22.612 51.3466 22.548C51.3786 22.484 51.4906 22.356 51.6826 22.164C51.7146 22.196 51.7786 21.892 51.8746 21.252C51.8746 21.188 51.9546 21.124 52.1146 21.06C52.1466 20.708 52.1946 20.452 52.2586 20.292C52.3546 20.1 52.4986 19.86 52.6906 19.572C52.7546 19.156 52.8346 18.9 52.9306 18.804C53.2826 18.356 53.4746 18.02 53.5066 17.796C53.7306 17.764 53.9546 17.54 54.1786 17.124C54.1786 17.124 54.1626 17.124 54.1306 17.124C54.1306 17.124 54.1306 17.108 54.1306 17.076C54.1306 16.82 54.3546 16.42 54.8026 15.876C55.2506 15.364 55.7626 14.708 56.3386 13.908C56.4346 13.876 56.6746 13.668 57.0586 13.284C57.2506 13.22 57.3626 13.172 57.3946 13.14C57.4266 13.204 57.4426 13.252 57.4426 13.284C57.4426 13.476 57.3466 13.604 57.1546 13.668C56.8026 14.212 56.6266 14.452 56.6266 14.388C56.6266 14.452 56.6586 14.484 56.7226 14.484C56.7546 14.484 56.7706 14.468 56.7706 14.436H56.8186C56.8826 14.436 56.9946 14.516 57.1546 14.676C57.2186 14.612 57.2986 14.564 57.3946 14.532C57.3946 14.532 57.3946 14.516 57.3946 14.484C57.3946 14.42 57.4106 14.356 57.4426 14.292C57.4746 14.26 57.5386 14.228 57.6346 14.196C57.7306 14.132 57.8426 14.036 57.9706 13.908C58.0026 13.78 58.0666 13.62 58.1626 13.428C58.2906 13.204 58.4666 13.028 58.6906 12.9C58.6586 12.868 58.6586 12.788 58.6906 12.66C58.7866 12.692 58.8826 12.644 58.9786 12.516C59.1066 12.388 59.2186 12.34 59.3146 12.372C59.3786 12.18 59.4426 12.036 59.5066 11.94L59.7946 11.796C59.8586 11.316 60.0186 11.076 60.2746 11.076C60.3386 11.108 60.3866 11.124 60.4186 11.124L60.4666 10.932C60.4986 10.9 60.5466 10.868 60.6106 10.836C60.6746 10.804 60.7386 10.756 60.8026 10.692V10.596C60.8026 10.276 60.9946 10.1 61.3786 10.068C61.4106 10.004 61.4266 9.86 61.4266 9.636H61.6666C61.7626 9.54 61.8266 9.46 61.8586 9.396C61.8906 9.332 61.9706 9.268 62.0986 9.204C62.0666 8.852 62.2906 8.308 62.7706 7.572C62.6426 7.668 62.5306 7.716 62.4346 7.716C62.4026 7.716 62.3866 7.7 62.3866 7.668C62.3866 7.604 62.3866 7.54 62.3866 7.476C62.3866 7.412 62.4026 7.316 62.4346 7.188C62.4986 7.124 62.5786 7.044 62.6746 6.948C62.8026 6.852 62.9306 6.756 63.0586 6.66C63.1226 6.596 63.1866 6.532 63.2506 6.468C63.3466 6.372 63.4586 6.26 63.5866 6.132C63.6826 6.1 63.8426 5.924 64.0666 5.604C64.1306 5.54 64.2106 5.46 64.3066 5.364C64.4026 5.236 64.4826 5.108 64.5466 4.98C64.8026 4.916 64.9786 4.756 65.0746 4.5C65.1706 4.244 65.4746 4.02 65.9866 3.828C66.1146 3.668 66.3546 3.492 66.7066 3.3C66.7066 3.3 66.7386 3.204 66.8026 3.012C66.9946 2.948 67.2506 2.708 67.5706 2.292C67.6026 2.228 67.7786 2.084 68.0986 1.86C68.4506 1.604 68.6426 1.476 68.6746 1.476H68.8666C68.8666 1.476 68.9786 1.54 69.2026 1.668C69.4266 1.764 69.6986 1.908 70.0186 2.1L70.1146 2.676L69.9706 2.964L70.3066 3.108C70.3386 3.108 70.3546 3.156 70.3546 3.252C70.3546 3.412 70.3066 3.668 70.2106 4.02C70.1786 4.212 70.1466 4.404 70.1146 4.596C70.1146 4.756 70.1306 4.916 70.1626 5.076L69.2026 6.42L68.8666 6.9C68.8346 6.9 68.7546 6.932 68.6266 6.996C68.2746 7.316 67.8746 7.892 67.4266 8.724C67.3946 8.724 67.3786 8.724 67.3786 8.724C67.3786 8.692 67.3626 8.676 67.3306 8.676C67.1706 8.772 67.0266 8.98 66.8986 9.3L66.4666 9.492C66.4026 9.62 66.3066 9.748 66.1786 9.876L66.0826 9.78L65.9386 10.26C65.7786 10.388 65.6826 10.516 65.6506 10.644C65.6506 10.74 65.6026 10.852 65.5066 10.98L64.9306 11.46C64.8986 11.492 64.7066 11.62 64.3546 11.844C64.0346 12.068 63.8746 12.228 63.8746 12.324C63.6826 12.548 63.4266 12.836 63.1066 13.188C62.8186 13.508 62.4666 13.908 62.0506 14.388C61.9226 14.548 61.7466 14.74 61.5226 14.964C61.3306 15.156 61.0746 15.38 60.7546 15.636C60.6906 15.7 60.5786 15.828 60.4186 16.02C60.2586 16.18 60.0666 16.388 59.8426 16.644C59.6826 16.74 59.4906 16.868 59.2666 17.028C59.0426 17.188 58.8026 17.38 58.5466 17.604C58.5466 17.636 58.4986 17.684 58.4026 17.748C58.3066 17.812 58.1626 17.988 57.9706 18.276H57.8266C57.7306 18.404 57.6026 18.548 57.4426 18.708C57.3146 18.868 57.1706 19.076 57.0106 19.332C56.9466 19.332 56.8986 19.348 56.8666 19.38C56.6426 19.7 56.4026 19.94 56.1466 20.1C56.1466 20.132 56.1146 20.18 56.0506 20.244C56.0186 20.308 55.9226 20.388 55.7626 20.484C55.7626 20.548 55.7306 20.644 55.6666 20.772C55.6026 20.9 55.4746 21.012 55.2826 21.108C55.2506 21.14 55.2346 21.204 55.2346 21.3H55.0906C54.9946 21.396 54.9146 21.524 54.8506 21.684C54.5306 21.78 54.3866 21.94 54.4186 22.164L53.9866 22.548C53.6986 22.772 53.4106 23.076 53.1226 23.46C53.0906 23.556 52.9946 23.972 52.8346 24.708C52.8986 24.772 52.8986 24.948 52.8346 25.236C52.7386 25.556 52.6906 25.764 52.6906 25.86C52.6906 25.956 52.6906 26.02 52.6906 26.052C52.6906 26.212 52.7706 26.404 52.9306 26.628C53.1226 26.852 53.2186 27.028 53.2186 27.156C53.3146 27.22 53.4426 27.22 53.6026 27.156C53.6026 27.22 53.6666 27.268 53.7946 27.3C53.8906 27.524 54.0826 27.652 54.3706 27.684L54.5146 27.492H54.6586C54.6906 27.62 54.7706 27.684 54.8986 27.684C54.9626 27.684 55.0426 27.652 55.1386 27.588C55.2666 27.524 55.3466 27.492 55.3786 27.492C55.3466 27.524 55.3946 27.556 55.5226 27.588C55.5546 27.556 55.5706 27.476 55.5706 27.348H55.9546C56.5946 27.348 56.9946 27.22 57.1546 26.964C57.2826 26.932 57.4266 26.884 57.5866 26.82C57.7466 26.756 57.9386 26.692 58.1626 26.628C58.2906 26.564 58.3706 26.468 58.4026 26.34C58.3706 26.34 58.3546 26.324 58.3546 26.292H58.8826V26.052C58.9466 26.02 59.1226 26.004 59.4106 26.004L59.6026 25.716L60.1306 25.428C60.1626 25.428 60.2266 25.412 60.3226 25.38C60.4506 25.348 60.6106 25.22 60.8026 24.996C60.8666 24.996 60.9306 24.98 60.9946 24.948C61.1866 24.82 61.4906 24.532 61.9066 24.084L62.8186 23.604L62.9146 23.508H63.3466C63.3146 23.636 63.2186 23.796 63.0586 23.988L62.4346 24.42C62.0186 24.708 61.8266 24.852 61.8586 24.852H61.8106C61.8106 24.82 61.7946 24.804 61.7626 24.804C61.5066 24.932 61.3466 25.092 61.2826 25.284C61.1866 25.284 61.1226 25.348 61.0906 25.476C61.0266 25.476 60.9466 25.492 60.8506 25.524C60.8506 25.524 60.8506 25.54 60.8506 25.572C60.8506 25.572 60.8346 25.604 60.8026 25.668L60.1786 26.1C60.1786 26.26 60.0506 26.372 59.7946 26.436C59.6986 26.436 59.5866 26.372 59.4586 26.244L59.1706 26.436V26.484C59.1706 26.644 59.0906 26.772 58.9306 26.868C58.7706 26.964 58.6426 26.98 58.5466 26.916C58.5786 26.948 58.5946 27.012 58.5946 27.108C58.5946 27.14 58.5146 27.268 58.3546 27.492L57.2026 28.068H57.1546C57.1546 28.036 57.1226 28.02 57.0586 28.02C56.8666 28.02 56.6746 28.116 56.4826 28.308C56.3866 28.34 56.1946 28.404 55.9066 28.5C55.6186 28.596 55.4586 28.644 55.4266 28.644L55.2826 28.548H54.6586C54.5306 28.548 54.4506 28.596 54.4186 28.692C54.3866 28.788 54.3386 28.836 54.2746 28.836C54.2426 28.836 54.2266 28.82 54.2266 28.788H54.1306C53.9386 28.788 53.8266 28.852 53.7946 28.98ZM54.0346 21.876L54.2266 21.78C54.3866 21.62 54.5466 21.428 54.7066 21.204C54.8986 20.98 55.0906 20.74 55.2826 20.484C55.2826 20.484 55.3306 20.436 55.4266 20.34C55.5226 20.244 55.5706 20.148 55.5706 20.052C55.7306 19.892 55.9066 19.732 56.0986 19.572C56.2906 19.38 56.5146 19.172 56.7706 18.948L56.9626 18.612C56.9946 18.58 57.0426 18.548 57.1066 18.516C57.1706 18.484 57.2346 18.436 57.2986 18.372L58.3546 17.316C58.3866 17.284 58.4026 17.22 58.4026 17.124C58.6266 16.964 58.7546 16.82 58.7866 16.692C58.8506 16.66 58.9626 16.564 59.1226 16.404C59.2826 16.244 59.4746 16.036 59.6986 15.78C59.8266 15.78 59.9866 15.636 60.1786 15.348C60.2426 15.316 60.3546 15.22 60.5146 15.06C60.9306 14.356 61.1386 13.988 61.1386 13.956H61.2826L62.0026 13.188C62.1306 13.06 62.1946 12.884 62.1946 12.66C62.7386 12.404 63.0426 12.084 63.1066 11.7L63.4426 11.46C63.4426 11.364 63.5546 11.204 63.7786 10.98C63.7786 10.98 63.7946 10.98 63.8266 10.98C63.8586 10.98 63.8906 10.964 63.9226 10.932C63.9866 10.836 64.0506 10.724 64.1146 10.596C64.2106 10.436 64.3226 10.244 64.4506 10.02H64.6906L64.8346 9.684C64.8986 9.556 64.9946 9.428 65.1226 9.3C65.2826 9.14 65.4426 8.948 65.6026 8.724V8.532C65.6986 8.532 65.8106 8.484 65.9386 8.388C65.9706 8.324 66.0026 8.26 66.0346 8.196C66.0666 8.1 66.1146 7.988 66.1786 7.86C66.3066 7.636 66.4666 7.38 66.6586 7.092C66.8826 6.804 67.1226 6.468 67.3786 6.084C67.3786 5.86 67.5066 5.588 67.7626 5.268V5.124C67.7946 5.092 67.7786 5.076 67.7146 5.076C67.6506 5.076 67.5866 5.108 67.5226 5.172C66.7226 5.78 66.0666 6.292 65.5546 6.708C65.0746 7.124 64.7546 7.428 64.5946 7.62C64.4986 7.652 64.4026 7.748 64.3066 7.908C64.3066 7.908 64.2586 7.956 64.1626 8.052C64.0986 8.148 63.9866 8.276 63.8266 8.436C63.7306 8.564 63.5866 8.612 63.3946 8.58C63.3626 8.836 63.1706 9.092 62.8186 9.348C62.4986 9.572 62.3226 9.78 62.2906 9.972C61.9706 10.132 61.5706 10.516 61.0906 11.124C60.6746 11.54 60.0986 12.212 59.3626 13.14C59.1706 13.236 58.9306 13.54 58.6426 14.052L58.3066 14.34C58.3066 14.468 58.1626 14.612 57.8746 14.772C57.8746 14.868 57.8106 14.98 57.6826 15.108C57.5546 15.236 57.4906 15.332 57.4906 15.396C57.3946 15.524 57.2346 15.684 57.0106 15.876C57.0106 15.876 56.9786 15.972 56.9146 16.164C56.8506 16.292 56.7706 16.404 56.6746 16.5C56.5786 16.564 56.4986 16.628 56.4346 16.692C56.4026 16.82 56.3866 16.916 56.3866 16.98C56.3866 17.044 56.3866 17.092 56.3866 17.124C56.2266 17.284 56.0506 17.508 55.8586 17.796C55.6986 18.084 55.5226 18.404 55.3306 18.756C55.1706 18.756 55.0426 18.9 54.9466 19.188C54.8506 19.476 54.7706 19.636 54.7066 19.668C54.6426 19.732 54.5626 19.78 54.4666 19.812V20.004L54.6586 20.148C54.5306 20.436 54.3706 20.596 54.1786 20.628C54.1786 20.756 54.1466 20.884 54.0826 21.012C54.0826 21.044 54.1146 21.06 54.1786 21.06C54.1146 21.22 54.0666 21.316 54.0346 21.348C54.0026 21.38 53.9546 21.428 53.8906 21.492L54.0346 21.876ZM65.8906 21.108C65.8906 20.98 66.0186 20.788 66.2746 20.532H66.3226C66.3226 20.564 66.3386 20.58 66.3706 20.58C66.4026 20.58 66.5146 20.452 66.7066 20.196C66.8986 19.908 67.0106 19.764 67.0426 19.764C67.1386 19.764 67.2506 19.812 67.3786 19.908V20.34C67.3146 20.372 67.2346 20.452 67.1386 20.58C67.0426 20.676 66.9786 20.724 66.9466 20.724C66.8506 20.724 66.7546 20.676 66.6586 20.58C66.6266 20.58 66.5626 20.676 66.4666 20.868L66.0346 21.108H65.8906ZM63.9706 22.98C63.9706 22.916 63.9066 22.868 63.7786 22.836C64.0026 22.708 64.3386 22.388 64.7866 21.876C64.9146 21.908 65.0266 21.812 65.1226 21.588C65.2186 21.364 65.3306 21.236 65.4586 21.204H65.6986L65.7946 21.3C65.7626 21.396 65.7146 21.508 65.6506 21.636C65.5866 21.764 65.5066 21.908 65.4106 22.068H65.3626C65.2666 22.068 65.1546 22.132 65.0266 22.26C64.9306 22.356 64.8826 22.436 64.8826 22.5C64.8826 22.532 64.8186 22.58 64.6906 22.644C64.5626 22.676 64.3866 22.788 64.1626 22.98H63.9706ZM63.3946 23.46V23.028C63.4586 23.06 63.5066 23.092 63.5386 23.124C63.5706 23.124 63.5866 23.124 63.5866 23.124C63.6506 23.124 63.6826 23.092 63.6826 23.028C63.7466 23.092 63.8426 23.124 63.9706 23.124C63.7786 23.348 63.5866 23.46 63.3946 23.46ZM57.9121 46.596C57.8161 46.596 57.6721 46.516 57.4801 46.356C57.2561 46.196 57.0961 46.116 57.0001 46.116C56.9041 46.116 56.8561 46.132 56.8561 46.164C56.8561 46.196 56.8241 46.212 56.7601 46.212C56.6961 46.212 56.6161 46.148 56.5201 46.02C56.4241 45.892 56.3441 45.828 56.2801 45.828C56.1841 45.828 56.1361 45.844 56.1361 45.876C56.1041 45.908 56.0561 45.924 55.9921 45.924C56.0561 45.924 55.8961 45.812 55.5121 45.588C55.3841 45.556 55.2241 45.46 55.0321 45.3C54.8081 45.172 54.4881 44.916 54.0721 44.532C54.1361 44.468 54.1361 44.404 54.0721 44.34C53.7521 44.052 53.4161 43.716 53.0641 43.332C53.0641 43.268 53.0641 43.188 53.0641 43.092C53.0641 42.996 53.0481 42.884 53.0161 42.756C52.9841 42.724 52.9201 42.628 52.8241 42.468C52.6961 42.308 52.6321 42.18 52.6321 42.084C52.6321 42.052 52.6801 41.924 52.7761 41.7C52.8721 41.508 52.9041 41.236 52.8721 40.884C53.0001 40.884 53.0961 40.852 53.1601 40.788C53.1601 39.668 53.7681 38.26 54.9841 36.564C55.0481 36.468 55.1121 36.42 55.1761 36.42C55.3361 36.42 55.3521 36.516 55.2241 36.708C54.9041 37.156 54.6321 37.588 54.4081 38.004C54.1841 38.452 54.0081 38.852 53.8801 39.204C53.7201 39.588 53.6401 40.116 53.6401 40.788V40.884C53.6401 41.3 53.7201 41.7 53.8801 42.084C54.0401 42.5 54.2321 42.884 54.4561 43.236C55.0321 44.196 55.7521 44.82 56.6161 45.108C57.2241 45.332 57.7361 45.476 58.1521 45.54L60.0721 45.78H60.1681C60.2321 45.78 60.3121 45.764 60.4081 45.732C60.5041 45.732 60.7281 45.732 61.0801 45.732C61.2401 45.732 61.8001 45.572 62.7601 45.252C63.2721 45.092 63.6561 44.964 63.9121 44.868C64.2001 44.804 64.3601 44.772 64.3921 44.772C64.4561 44.772 64.4721 44.788 64.4401 44.82C64.4401 44.852 64.4881 44.868 64.5841 44.868C64.6481 44.868 64.7761 44.788 64.9681 44.628C65.1601 44.5 65.2881 44.42 65.3521 44.388L66.2641 44.1L66.3121 44.052C66.4401 43.924 66.6641 43.796 66.9841 43.668C67.0481 43.732 67.1281 43.732 67.2241 43.668L67.6561 43.332C67.9441 43.3 68.1681 43.22 68.3281 43.092C68.4881 42.996 68.5681 42.948 68.5681 42.948H68.6161L68.9521 42.756C68.9841 42.724 69.0001 42.692 69.0001 42.66C69.2241 42.564 69.4961 42.388 69.8161 42.132L70.9681 41.412L71.1601 41.268C71.1921 41.268 71.2401 41.236 71.3041 41.172C71.4001 41.108 71.4641 41.012 71.4961 40.884L71.6881 40.98L71.8801 40.692L72.3601 40.452C72.4241 40.388 72.4721 40.34 72.5041 40.308C72.5361 40.276 72.5681 40.244 72.6001 40.212L73.1761 39.492C73.3041 39.428 73.3841 39.364 73.4161 39.3C73.4801 39.236 73.6081 39.14 73.8001 39.012C73.9281 38.884 74.0561 38.692 74.1841 38.436C74.3121 38.436 74.6961 38.116 75.3361 37.476C75.5921 37.22 75.6401 37.076 75.4801 37.044C75.5121 37.044 75.5441 37.06 75.5761 37.092L75.7201 36.948V36.708C75.5601 36.676 75.4961 36.644 75.5281 36.612C75.2721 36.708 75.0161 36.932 74.7601 37.284C74.5361 37.636 74.2161 37.956 73.8001 38.244C73.7681 38.244 73.7521 38.308 73.7521 38.436H73.5601C73.5601 38.404 73.5921 38.356 73.6561 38.292V38.148C73.6241 38.116 73.5601 38.1 73.4641 38.1C73.5281 37.972 73.5601 37.876 73.5601 37.812C73.8161 37.492 74.1041 37.14 74.4241 36.756C74.7441 36.372 75.0801 35.94 75.4321 35.46C75.8161 35.076 76.0561 34.724 76.1521 34.404C76.1841 34.372 76.2161 34.292 76.2481 34.164C76.3121 34.068 76.3761 33.876 76.4401 33.588C76.5681 33.428 76.6961 33.236 76.8241 33.012C76.9841 32.788 77.0161 32.612 76.9201 32.484C76.9841 32.42 77.0481 32.18 77.1121 31.764C77.2081 31.732 77.3041 31.604 77.4001 31.38C77.4321 31.156 77.4481 30.948 77.4481 30.756C77.4801 30.596 77.4961 30.452 77.4961 30.324C77.4961 30.324 77.4961 30.308 77.4961 30.276C77.4961 30.244 77.4801 30.212 77.4481 30.18L77.4961 29.988L77.3041 29.22C77.1441 28.548 76.7921 28.02 76.2481 27.636C76.2161 27.572 76.1521 27.492 76.0561 27.396C75.9921 27.3 75.9121 27.22 75.8161 27.156C75.2081 26.868 74.7601 26.724 74.4721 26.724C74.4401 26.724 74.4081 26.74 74.3761 26.772C74.3441 26.804 74.3121 26.82 74.2801 26.82C74.2481 26.82 74.1841 26.788 74.0881 26.724C73.9921 26.66 73.9281 26.628 73.8961 26.628C73.7681 26.628 73.4641 26.692 72.9841 26.82C72.5041 26.916 72.2001 26.964 72.0721 26.964H72.0241C72.0241 26.932 71.9921 26.916 71.9281 26.916C71.9281 26.916 71.8801 26.932 71.7841 26.964C71.7201 26.996 71.6081 27.028 71.4481 27.06C71.2881 27.188 71.1761 27.252 71.1121 27.252C71.0801 27.252 71.0321 27.236 70.9681 27.204C70.9041 27.172 70.8561 27.156 70.8241 27.156C70.7921 27.156 70.7281 27.188 70.6321 27.252C70.5681 27.316 70.5041 27.348 70.4401 27.348C70.4081 27.348 70.3921 27.332 70.3921 27.3H70.3441C70.4081 27.3 70.0881 27.476 69.3841 27.828C69.2561 27.86 69.1281 27.924 69.0001 28.02C68.9041 28.116 68.8241 28.164 68.7601 28.164C68.7281 28.164 68.7121 28.148 68.7121 28.116C68.7121 28.084 68.6801 28.068 68.6161 28.068C68.4241 28.068 68.2481 28.196 68.0881 28.452C67.8961 28.484 67.7041 28.532 67.5121 28.596C67.3201 28.692 67.1121 28.804 66.8881 28.932C66.8241 28.932 66.7441 28.948 66.6481 28.98C66.4241 29.012 66.2161 29.156 66.0241 29.412C65.9601 29.348 65.8801 29.348 65.7841 29.412C65.7201 29.444 65.6401 29.476 65.5441 29.508C65.4481 29.572 65.3041 29.62 65.1121 29.652C65.0801 29.684 65.0001 29.716 64.8721 29.748C64.7761 29.812 64.6161 29.844 64.3921 29.844H64.2961C64.2961 29.812 64.2641 29.796 64.2001 29.796C64.1041 29.796 63.9921 29.86 63.8641 29.988C63.5761 29.796 63.4161 29.7 63.3841 29.7C63.3521 29.7 63.3361 29.716 63.3361 29.748H63.2401C63.1761 29.748 63.1281 29.732 63.0961 29.7C63.0641 29.508 62.8561 29.284 62.4721 29.028V28.596C62.4721 28.052 62.5841 27.604 62.8081 27.252C62.9361 27.188 63.0481 27.108 63.1441 27.012C63.2401 26.916 63.4321 26.772 63.7201 26.58C63.7201 26.548 63.8641 26.436 64.1521 26.244C64.4401 26.052 64.5841 25.924 64.5841 25.86C65.0001 25.636 65.5121 25.444 66.1201 25.284C66.3441 25.252 66.6961 25.044 67.1761 24.66C67.1121 24.596 66.9201 24.484 66.6001 24.324V24.276C66.6001 24.212 66.5841 24.132 66.5521 24.036C66.5201 23.908 66.4721 23.78 66.4081 23.652L66.3121 23.028C66.3761 22.964 66.4081 22.9 66.4081 22.836C66.3441 22.644 66.3121 22.548 66.3121 22.548V22.068L66.6001 21.588V21.3C66.7601 21.204 66.9041 20.948 67.0321 20.532C67.1601 20.5 67.3041 20.324 67.4641 20.004L67.6081 19.716C67.7041 19.652 67.8161 19.556 67.9441 19.428C68.1041 19.268 68.2801 19.092 68.4721 18.9C68.4401 18.9 68.2641 18.788 67.9441 18.564C67.6241 18.34 67.4321 18.228 67.3681 18.228C67.3041 18.26 67.2561 18.276 67.2241 18.276C67.1601 18.18 67.0801 18.084 66.9841 17.988C66.9201 17.892 66.8241 17.796 66.6961 17.7C66.6961 17.668 66.7121 17.636 66.7441 17.604C66.7761 17.54 66.7921 17.492 66.7921 17.46C66.7921 17.428 66.7601 17.38 66.6961 17.316C66.6321 17.22 66.6001 17.14 66.6001 17.076C66.6001 17.044 66.6481 16.948 66.7441 16.788C66.8401 16.596 66.9041 16.5 66.9361 16.5C67.2241 16.5 67.3681 16.692 67.3681 17.076C67.4641 17.076 67.5601 17.092 67.6561 17.124C67.9121 17.476 68.0881 17.652 68.1841 17.652C68.2161 17.652 68.2481 17.636 68.2801 17.604H68.3281C68.3601 17.604 68.4401 17.636 68.5681 17.7C68.6961 17.732 68.8561 17.748 69.0481 17.748C69.0801 17.876 69.1441 17.94 69.2401 17.94C69.2721 17.94 69.3201 17.924 69.3841 17.892C69.4481 17.86 69.4961 17.844 69.5281 17.844C69.5601 17.844 69.5921 17.86 69.6241 17.892C69.6561 17.924 69.7041 17.94 69.7681 17.94C69.8321 17.94 69.9121 17.876 70.0081 17.748L70.4881 17.46L70.7281 17.604C70.9201 17.604 71.0801 17.508 71.2081 17.316C71.3681 17.508 71.4961 17.636 71.5921 17.7C71.7201 17.764 71.8481 17.828 71.9761 17.892V17.94L72.3121 18.324C72.5361 18.356 72.7761 18.372 73.0321 18.372C73.3201 18.372 73.6241 18.372 73.9441 18.372C74.0721 18.34 74.1681 18.324 74.2321 18.324C74.2961 18.324 74.3281 18.324 74.3281 18.324C74.3281 18.324 74.3761 18.356 74.4721 18.42C74.5361 18.484 74.6641 18.484 74.8561 18.42C74.9841 18.388 75.0961 18.372 75.1921 18.372L75.3841 18.468H75.6721C75.7681 18.436 75.8641 18.42 75.9601 18.42L76.6321 18.228C76.6641 18.26 76.7121 18.276 76.7761 18.276C76.8081 18.244 76.8561 18.228 76.9201 18.228C76.9841 18.228 77.0481 18.212 77.1121 18.18H77.4481L78.3121 18.228C78.3441 18.356 78.3441 18.468 78.3121 18.564C78.2801 18.596 78.2321 18.612 78.1681 18.612C78.1041 18.612 78.0401 18.628 77.9761 18.66C77.8801 18.66 77.8001 18.66 77.7361 18.66C77.6721 18.628 77.6081 18.612 77.5441 18.612C77.3841 18.612 77.1921 18.676 76.9681 18.804C76.7121 18.964 76.5681 19.044 76.5361 19.044C76.5361 19.044 76.4081 19.012 76.1521 18.948C76.1201 18.948 76.0561 18.98 75.9601 19.044C75.8641 19.076 75.7041 19.124 75.4801 19.188C75.4161 19.124 75.3361 19.076 75.2401 19.044C75.1761 19.204 74.7441 19.332 73.9441 19.428C74.1041 19.684 74.1681 19.812 74.1361 19.812C74.1361 19.812 74.2641 20.02 74.5201 20.436C74.5841 20.66 74.5841 20.996 74.5201 21.444C74.4241 21.54 74.2801 21.7 74.0881 21.924C73.8961 22.148 73.6241 22.388 73.2721 22.644L73.1761 22.836C72.6321 23.188 72.3441 23.364 72.3121 23.364H72.2641C72.2641 23.332 72.2481 23.316 72.2161 23.316C72.2161 23.316 72.1361 23.364 71.9761 23.46C71.8161 23.524 71.6401 23.652 71.4481 23.844C71.1281 23.844 70.9201 23.908 70.8241 24.036C70.7601 24.132 70.6161 24.26 70.3921 24.42C70.3281 24.42 70.2481 24.436 70.1521 24.468C70.0561 24.468 69.9441 24.484 69.8161 24.516L69.5281 24.708H69.0961L68.9041 24.852C68.8721 24.852 68.8401 24.836 68.8081 24.804C68.7761 24.772 68.7441 24.756 68.7121 24.756C68.6801 24.756 68.6481 24.788 68.6161 24.852C68.6161 24.884 68.5841 24.9 68.5201 24.9H68.4721C68.4401 24.868 68.4081 24.852 68.3761 24.852C68.2481 24.852 68.1521 24.884 68.0881 24.948C67.7361 25.076 67.3681 25.236 66.9841 25.428C66.6321 25.588 66.2801 25.748 65.9281 25.908L65.4961 26.1L64.2961 26.916C64.2321 26.98 64.1361 27.076 64.0081 27.204C63.9121 27.332 63.8001 27.476 63.6721 27.636C63.6721 27.732 63.6081 27.892 63.4801 28.116C63.4481 28.276 63.4161 28.388 63.3841 28.452C63.3841 28.484 63.3841 28.484 63.3841 28.452C63.3841 28.612 63.5121 28.82 63.7681 29.076C63.8321 29.076 63.9121 29.092 64.0081 29.124C64.1041 29.156 64.1681 29.172 64.2001 29.172C64.2961 29.172 64.3441 29.14 64.3441 29.076C64.3441 29.108 64.3441 29.108 64.3441 29.076C64.3761 29.108 64.6641 29.124 65.2081 29.124C65.3041 29.124 65.5441 29.012 65.9281 28.788C66.3441 28.596 66.6641 28.484 66.8881 28.452C67.0161 28.228 67.1761 28.116 67.3681 28.116C67.4001 28.116 67.4161 28.132 67.4161 28.164H67.4641C67.4321 28.164 67.5281 28.1 67.7521 27.972L68.4241 27.732C68.4881 27.7 68.5681 27.652 68.6641 27.588C68.7601 27.492 68.8241 27.444 68.8561 27.444H68.9041C68.9041 27.476 68.9201 27.492 68.9521 27.492C69.0161 27.492 69.0481 27.476 69.0481 27.444C69.0801 27.38 69.1121 27.348 69.1441 27.348H69.1921C69.1921 27.38 69.2081 27.396 69.2401 27.396C69.2721 27.396 69.3361 27.364 69.4321 27.3C69.5281 27.204 69.5921 27.156 69.6241 27.156C69.8801 27.092 70.0881 27.012 70.2481 26.916L70.4401 26.772C70.8881 26.74 71.2401 26.612 71.4961 26.388C71.6561 26.292 71.8481 26.212 72.0721 26.148C72.3281 26.052 72.7121 25.972 73.2241 25.908L73.3201 25.812H73.4161C73.4481 25.844 73.4801 25.86 73.5121 25.86C73.5441 25.86 73.5921 25.844 73.6561 25.812C73.7521 25.748 73.8321 25.716 73.8961 25.716C73.8001 25.716 73.8321 25.748 73.9921 25.812C74.0241 25.684 74.1361 25.62 74.3281 25.62C74.3601 25.62 74.3921 25.636 74.4241 25.668C74.4561 25.7 74.4881 25.716 74.5201 25.716C74.5841 25.716 74.6161 25.7 74.6161 25.668C74.6481 25.636 74.6961 25.62 74.7601 25.62C74.7921 25.62 74.8081 25.636 74.8081 25.668C74.8081 25.7 74.8401 25.716 74.9041 25.716C74.9361 25.716 74.9521 25.7 74.9521 25.668C74.9841 25.636 75.0161 25.62 75.0481 25.62C75.1121 25.62 75.1601 25.636 75.1921 25.668C75.2241 25.7 75.2561 25.716 75.2881 25.716C75.3201 25.716 75.3521 25.7 75.3841 25.668C75.4481 25.636 75.4961 25.62 75.5281 25.62C75.5281 25.62 75.6881 25.684 76.0081 25.812C76.1041 25.812 76.1521 25.78 76.1521 25.716C76.4721 25.812 76.6481 25.876 76.6801 25.908H76.7761C76.8401 25.908 76.9361 26.004 77.0641 26.196L77.5441 26.34C77.6081 26.5 77.7041 26.628 77.8321 26.724C77.9281 26.692 77.9921 26.676 78.0241 26.676C78.0881 26.644 78.1201 26.628 78.1201 26.628C78.1201 26.82 78.1361 26.932 78.1681 26.964C78.1681 26.9 78.2161 26.868 78.3121 26.868V27.012C78.3761 27.044 78.4561 27.124 78.5521 27.252C78.6481 27.348 78.7121 27.396 78.7441 27.396C78.8081 27.364 78.8561 27.348 78.8881 27.348C78.9521 27.54 79.0481 27.732 79.1761 27.924C79.1761 28.052 79.2081 28.18 79.2721 28.308C79.3681 28.436 79.4321 28.532 79.4641 28.596C79.5281 28.756 79.5761 28.964 79.6081 29.22C79.6721 29.508 79.7361 30.132 79.8001 31.092C79.8001 31.092 79.8161 31.108 79.8481 31.14C79.8801 31.204 79.8961 31.252 79.8961 31.284L79.7041 31.764C79.6081 32.02 79.6401 32.196 79.8001 32.292L79.4161 32.964C79.3841 32.996 79.4161 33.06 79.5121 33.156L79.2241 33.492C79.2241 33.588 79.2081 33.668 79.1761 33.732L78.6001 34.644L78.3121 35.268C78.2481 35.396 78.0561 35.684 77.7361 36.132C77.4481 36.58 77.0321 37.172 76.4881 37.908L76.2481 38.052C76.1201 38.276 75.8801 38.532 75.5281 38.82C75.2081 39.108 74.7761 39.508 74.2321 40.02L73.7041 40.356C73.6721 40.356 73.6401 40.42 73.6081 40.548C73.5121 40.516 73.4161 40.596 73.3201 40.788C73.1921 40.788 73.0321 40.884 72.8401 41.076C72.7121 41.236 72.5041 41.428 72.2161 41.652C71.9281 41.876 71.5601 42.148 71.1121 42.468C70.7601 42.692 70.3121 42.964 69.7681 43.284C69.2241 43.636 68.5841 44.02 67.8481 44.436C67.4961 44.596 66.8881 44.788 66.0241 45.012C65.1921 45.268 64.1201 45.572 62.8081 45.924L62.5681 46.116C62.4081 46.148 62.2161 46.18 61.9921 46.212C61.7361 46.244 61.4321 46.292 61.0801 46.356L59.9281 46.596C59.8641 46.596 59.7041 46.564 59.4481 46.5C59.1601 46.436 58.9841 46.404 58.9201 46.404C58.8241 46.404 58.7441 46.388 58.6801 46.356C58.5841 46.324 58.5041 46.308 58.4401 46.308L58.2481 46.116L57.9121 46.596ZM78.8401 18.612C78.7121 18.388 78.6961 18.276 78.7921 18.276C78.9841 18.276 79.1281 18.292 79.2241 18.324C79.2881 18.324 79.3201 18.276 79.3201 18.18H79.5601C79.5921 18.148 79.6241 18.116 79.6561 18.084C79.6881 18.052 79.7201 18.02 79.7521 17.988C79.8801 17.988 80.2481 17.812 80.8561 17.46C80.9841 17.428 81.0961 17.412 81.1921 17.412C81.3201 17.412 81.4161 17.412 81.4801 17.412C81.8001 17.412 82.0081 17.46 82.1041 17.556V17.604C82.1041 17.7 81.9601 17.796 81.6721 17.892C81.3841 17.956 81.2081 18.02 81.1441 18.084C81.1121 18.116 80.9841 18.164 80.7601 18.228L80.3761 18.324C80.0241 18.58 79.6561 18.676 79.2721 18.612C79.1441 18.548 79.0001 18.548 78.8401 18.612ZM69.9121 23.46C69.9761 23.364 70.0561 23.316 70.1521 23.316C70.1841 23.316 70.2161 23.332 70.2481 23.364H70.3441C70.3761 23.364 70.4241 23.348 70.4881 23.316C70.5841 23.252 70.6481 23.22 70.6801 23.22C70.7441 23.22 70.7761 23.236 70.7761 23.268H70.8241C71.0161 23.268 71.3201 23.14 71.7361 22.884C72.3761 22.436 72.7121 22.212 72.7441 22.212H72.8881C72.9201 22.116 73.0321 21.972 73.2241 21.78C73.4161 21.556 73.5121 21.348 73.5121 21.156C73.5121 20.932 73.3841 20.612 73.1281 20.196C73.0961 20.196 73.0161 20.164 72.8881 20.1C72.8881 20.132 72.8721 20.116 72.8401 20.052C72.8401 19.988 72.8241 19.892 72.7921 19.764L72.5041 19.524C72.4401 19.524 72.3601 19.524 72.2641 19.524C72.1681 19.524 72.0721 19.508 71.9761 19.476C71.8481 19.188 71.8001 19.028 71.8321 18.996L72.0721 18.756C71.6561 18.82 71.4161 18.916 71.3521 19.044C71.2881 19.172 71.2081 19.284 71.1121 19.38L70.7281 19.476L69.8641 20.148C69.7041 20.436 69.4481 20.66 69.0961 20.82C69.0321 20.916 68.9521 21.044 68.8561 21.204C68.7921 21.332 68.7121 21.476 68.6161 21.636C68.6481 21.764 68.6161 21.908 68.5201 22.068V22.596C68.7121 22.66 68.7921 22.788 68.7601 22.98C68.9201 22.98 69.0161 22.996 69.0481 23.028V23.172H69.1921C69.4801 23.172 69.7201 23.268 69.9121 23.46ZM76.5841 25.956C76.6161 25.956 76.6321 25.956 76.6321 25.956H76.5841ZM83.6784 28.548C83.6784 28.548 83.5664 28.484 83.3424 28.356C83.2464 28.356 83.1024 28.34 82.9104 28.308C82.7184 28.276 82.4304 28.164 82.0464 27.972C81.9824 27.94 81.8864 27.908 81.7584 27.876C81.6624 27.812 81.5504 27.732 81.4224 27.636C81.3904 27.476 81.2464 27.236 80.9904 26.916H80.8944L80.7504 27.012C80.7184 26.852 80.6224 26.708 80.4624 26.58C80.4624 26.452 80.3984 26.308 80.2704 26.148C80.3344 25.892 80.3344 25.604 80.2704 25.284C80.2064 25.092 80.0784 24.9 79.8864 24.708L80.0304 24.516C80.0944 24.388 80.1584 24.244 80.2224 24.084C80.2864 23.892 80.3504 23.684 80.4144 23.46C80.4464 23.332 80.4784 23.188 80.5104 23.028C80.5424 22.868 80.5904 22.676 80.6544 22.452C80.6224 22.42 80.4624 22.292 80.1744 22.068C79.9184 21.844 79.6944 21.78 79.5024 21.876C79.5344 21.812 79.5504 21.764 79.5504 21.732C79.5504 21.668 79.5504 21.636 79.5504 21.636C79.5504 21.604 79.5184 21.572 79.4544 21.54C79.3904 21.476 79.3584 21.412 79.3584 21.348C79.3584 21.348 79.4064 21.3 79.5024 21.204C79.5984 21.076 79.6624 21.012 79.6944 21.012C79.7584 21.012 79.8544 21.044 79.9824 21.108C80.1424 21.172 80.2544 21.204 80.3184 21.204C80.3504 21.204 80.3984 21.188 80.4624 21.156C80.5264 21.124 80.5744 21.108 80.6064 21.108L81.4224 21.3C81.4864 21.3 81.5824 21.268 81.7104 21.204L82.9104 20.004C83.0064 20.004 83.0544 19.988 83.0544 19.956C83.0864 19.892 83.2624 19.716 83.5824 19.428C83.6144 19.428 83.6624 19.412 83.7264 19.38C83.8224 19.348 83.9504 19.252 84.1104 19.092L84.2544 18.852C85.1824 18.212 85.9984 17.892 86.7024 17.892H87.0384C86.9744 17.956 87.0064 17.988 87.1344 17.988C87.1664 17.988 87.2144 17.972 87.2784 17.94C87.3424 17.908 87.3904 17.892 87.4224 17.892L87.7104 18.084H87.9984C88.1264 18.212 88.1904 18.276 88.1904 18.276C88.2224 18.276 88.2384 18.26 88.2384 18.228H88.2864C88.2224 18.228 88.2864 18.324 88.4784 18.516C88.4784 18.516 88.3984 18.772 88.2384 19.284C88.1424 19.348 87.9984 19.476 87.8064 19.668C87.6464 19.86 87.5344 19.956 87.4704 19.956C87.4384 19.956 87.3584 19.924 87.2304 19.86C87.1344 19.796 87.0544 19.764 86.9904 19.764C86.9584 19.764 86.8624 19.796 86.7024 19.86C86.5424 19.924 86.4304 19.988 86.3664 20.052C86.3344 20.084 86.2544 20.132 86.1264 20.196C86.0304 20.228 85.6624 20.356 85.0224 20.58C85.0544 20.804 85.0064 20.932 84.8784 20.964C84.6544 20.996 84.5104 21.076 84.4464 21.204V21.252C84.6064 21.412 84.9744 21.492 85.5504 21.492C85.5824 21.492 85.6144 21.476 85.6464 21.444C85.7104 21.412 85.7744 21.396 85.8384 21.396C85.8704 21.396 85.9024 21.412 85.9344 21.444H86.0304C86.0624 21.444 86.1104 21.428 86.1744 21.396C86.2384 21.332 86.2864 21.3 86.3184 21.3C86.3824 21.3 86.5744 21.348 86.8944 21.444C87.2144 21.54 87.3904 21.588 87.4224 21.588C87.5504 21.588 87.6464 21.508 87.7104 21.348L87.9024 21.492H88.1424C88.1744 21.492 88.2384 21.444 88.3344 21.348V21.252C88.0784 21.092 87.8864 21.012 87.7584 21.012V20.628L87.9984 20.532C88.0304 20.532 88.0624 20.548 88.0944 20.58H88.1904L88.6224 20.436C88.7184 20.628 88.8304 20.788 88.9584 20.916C88.9904 20.916 89.0064 20.884 89.0064 20.82C89.1024 20.852 89.2304 20.948 89.3904 21.108C89.5824 21.236 89.7104 21.3 89.7744 21.3C89.8064 21.3 89.8544 21.284 89.9184 21.252C89.9824 21.188 90.0464 21.14 90.1104 21.108H90.3504C90.6384 21.108 90.9584 21.044 91.3104 20.916L91.4544 21.012C91.5504 20.916 91.6624 20.868 91.7904 20.868C91.8544 20.868 91.8864 20.884 91.8864 20.916H91.9344L92.4624 20.82C92.5264 20.756 92.6384 20.708 92.7984 20.676C92.9584 20.644 93.2304 20.628 93.6144 20.628C93.6464 20.628 93.6624 20.612 93.6624 20.58C93.7904 20.516 93.9184 20.468 94.0464 20.436C94.2064 20.404 94.3824 20.372 94.5744 20.34C94.6064 20.308 94.6704 20.26 94.7664 20.196C94.8944 20.132 95.1024 20.068 95.3904 20.004C95.4544 20.004 95.5184 20.004 95.5824 20.004C95.6464 20.004 95.7424 19.988 95.8704 19.956L96.0144 19.812C96.0464 19.812 96.0624 19.828 96.0624 19.86H96.1104C95.9824 19.86 96.2064 19.732 96.7824 19.476C96.8144 19.508 96.8304 19.556 96.8304 19.62C96.8304 19.684 96.8464 19.764 96.8784 19.86C96.7824 19.86 96.7184 19.924 96.6864 20.052C96.3664 20.084 96.1424 20.212 96.0144 20.436L95.2944 20.724C95.2304 20.724 95.1504 20.724 95.0544 20.724C94.9904 20.724 94.8944 20.74 94.7664 20.772L94.3344 21.012C94.3024 21.012 94.2704 20.996 94.2384 20.964C94.2064 20.932 94.1744 20.916 94.1424 20.916C94.1744 20.916 94.0784 20.964 93.8544 21.06C93.6624 21.156 93.4864 21.204 93.3264 21.204H93.2784C93.2784 21.172 93.2624 21.156 93.2304 21.156L93.0864 21.3C92.9584 21.332 92.7824 21.348 92.5584 21.348C92.3664 21.348 92.1424 21.364 91.8864 21.396C91.8864 21.428 91.8704 21.46 91.8384 21.492C91.9024 21.492 91.8864 21.508 91.7904 21.54C91.7264 21.54 91.6144 21.556 91.4544 21.588C91.3584 21.588 91.2304 21.588 91.0704 21.588C90.9104 21.588 90.7184 21.604 90.4944 21.636C90.4624 21.636 90.4144 21.668 90.3504 21.732L90.9744 22.452V22.596C90.9744 22.596 90.9904 22.612 91.0224 22.644C91.0544 22.676 91.1504 22.82 91.3104 23.076C91.4064 23.268 91.4064 23.38 91.3104 23.412C91.4064 23.732 91.4544 23.844 91.4544 23.748C91.4544 23.78 91.4384 23.86 91.4064 23.988C91.3744 24.116 91.3264 24.292 91.2624 24.516C91.1984 24.612 91.1344 24.74 91.0704 24.9C91.0064 25.028 90.9424 25.188 90.8784 25.38C90.7824 25.508 90.6384 25.684 90.4464 25.908C90.2544 26.1 89.9984 26.356 89.6784 26.676C89.6784 26.708 89.5984 26.772 89.4384 26.868C89.3104 26.932 89.1664 27.076 89.0064 27.3C88.8144 27.396 88.5744 27.508 88.2864 27.636C88.0304 27.732 87.7264 27.86 87.3744 28.02C87.2464 28.052 87.0704 28.1 86.8464 28.164C86.6544 28.196 86.4304 28.228 86.1744 28.26C86.0784 28.292 85.9504 28.34 85.7904 28.404C85.6304 28.468 85.4224 28.5 85.1664 28.5C84.6224 28.5 84.3024 28.484 84.2064 28.452L83.6784 28.548ZM84.1104 28.068C84.1104 28.1 84.1104 28.1 84.1104 28.068C84.1424 28.004 84.1744 27.972 84.2064 27.972L84.5904 28.068C84.7824 28.068 84.8944 28.052 84.9264 28.02C84.9904 27.956 85.0704 27.924 85.1664 27.924H85.3584C85.4544 27.956 85.5344 27.972 85.5984 27.972C85.6304 27.972 85.6784 27.956 85.7424 27.924C85.8064 27.86 85.8544 27.828 85.8864 27.828C85.9504 27.828 85.9824 27.844 85.9824 27.876L86.1264 27.78H86.7504C86.7504 27.78 86.8464 27.764 87.0384 27.732C87.2624 27.668 87.4704 27.572 87.6624 27.444L88.0464 27.204C88.3024 27.044 88.5264 26.932 88.7184 26.868C88.9104 26.772 89.0544 26.692 89.1504 26.628C89.6304 26.276 89.9504 25.892 90.1104 25.476C90.1104 25.38 90.1264 25.268 90.1584 25.14C90.2224 24.98 90.2544 24.884 90.2544 24.852C90.2544 24.724 90.1904 24.596 90.0624 24.468C90.0624 24.404 90.0624 24.308 90.0624 24.18C90.0944 24.052 90.1264 23.908 90.1584 23.748L90.0624 23.652C89.9984 23.396 89.8864 23.14 89.7264 22.884C89.6944 22.884 89.6624 22.868 89.6304 22.836C89.5984 22.804 89.5664 22.66 89.5344 22.404L89.2944 22.212V21.972H88.7664C88.7344 21.972 88.7024 21.956 88.6704 21.924C88.6384 21.892 88.6064 21.876 88.5744 21.876H88.3344C87.9824 22.036 87.8064 22.132 87.8064 22.164H87.8544C87.8544 22.164 87.8384 22.164 87.8064 22.164L87.4224 22.02C87.4224 22.02 87.3424 22.052 87.1824 22.116C87.0224 22.18 86.8464 22.212 86.6544 22.212C86.6224 22.212 86.5904 22.196 86.5584 22.164C86.5264 22.1 86.4784 22.068 86.4144 22.068C86.3824 22.068 86.3184 22.116 86.2224 22.212C86.1264 22.276 86.0624 22.308 86.0304 22.308C85.9664 22.308 85.9184 22.292 85.8864 22.26C85.8864 22.228 85.8704 22.212 85.8384 22.212C85.8064 22.212 85.7584 22.228 85.6944 22.26C85.6304 22.292 85.5824 22.308 85.5504 22.308C85.5504 22.308 85.4384 22.244 85.2144 22.116C85.2144 22.372 85.1184 22.5 84.9264 22.5C84.7984 22.5 84.7344 22.388 84.7344 22.164C84.6064 22.196 84.4944 22.244 84.3984 22.308C84.3344 22.34 84.2544 22.356 84.1584 22.356H84.0144L83.8704 22.212C83.8384 22.308 83.7584 22.356 83.6304 22.356C83.5344 22.356 83.4704 22.34 83.4384 22.308V22.164C83.4064 22.196 83.3584 22.228 83.2944 22.26C83.2304 22.292 83.1664 22.324 83.1024 22.356V22.404C83.1024 22.564 83.0064 22.708 82.8144 22.836C82.6224 22.964 82.3504 23.124 81.9984 23.316C81.9984 23.348 81.9984 23.396 81.9984 23.46C82.0304 23.492 82.0464 23.524 82.0464 23.556C82.0464 23.876 81.9024 24.084 81.6144 24.18L81.1824 25.476C81.2464 25.476 81.2784 25.492 81.2784 25.524L81.8064 27.108C81.8384 27.108 81.8704 27.092 81.9024 27.06H82.0464C82.1424 27.06 82.2224 27.172 82.2864 27.396C82.3504 27.588 82.4464 27.684 82.5744 27.684C82.6064 27.684 82.6224 27.668 82.6224 27.636H82.6704C82.6384 27.636 82.7664 27.7 83.0544 27.828C83.0544 27.828 83.1504 27.86 83.3424 27.924L83.4384 27.828C83.8864 27.924 84.1104 28.004 84.1104 28.068Z" fill="#007272"/>
</svg>
