<svg width="150" height="130" viewBox="0 0 150 130" fill="none" xmlns="http://www.w3.org/2000/svg">
<rect width="150" height="130" fill="#F6FAFB"/>
<path d="M47.9803 99.2727H49.5783L52.3567 106.057H52.459L55.2374 99.2727H56.8354V108H55.5826V101.685H55.5016L52.9277 107.987H51.888L49.3141 101.68H49.2331V108H47.9803V99.2727ZM61.4047 108.132C60.791 108.132 60.2555 107.991 59.7981 107.71C59.3407 107.429 58.9856 107.036 58.7328 106.53C58.4799 106.024 58.3535 105.433 58.3535 104.757C58.3535 104.078 58.4799 103.484 58.7328 102.976C58.9856 102.467 59.3407 102.072 59.7981 101.791C60.2555 101.51 60.791 101.369 61.4047 101.369C62.0183 101.369 62.5538 101.51 63.0112 101.791C63.4686 102.072 63.8237 102.467 64.0765 102.976C64.3294 103.484 64.4558 104.078 64.4558 104.757C64.4558 105.433 64.3294 106.024 64.0765 106.53C63.8237 107.036 63.4686 107.429 63.0112 107.71C62.5538 107.991 62.0183 108.132 61.4047 108.132ZM61.4089 107.062C61.8066 107.062 62.1362 106.957 62.3975 106.747C62.6589 106.537 62.8521 106.257 62.9771 105.908C63.1049 105.558 63.1689 105.173 63.1689 104.753C63.1689 104.335 63.1049 103.952 62.9771 103.602C62.8521 103.25 62.6589 102.967 62.3975 102.754C62.1362 102.541 61.8066 102.435 61.4089 102.435C61.0083 102.435 60.676 102.541 60.4118 102.754C60.1504 102.967 59.9558 103.25 59.8279 103.602C59.7029 103.952 59.6404 104.335 59.6404 104.753C59.6404 105.173 59.7029 105.558 59.8279 105.908C59.9558 106.257 60.1504 106.537 60.4118 106.747C60.676 106.957 61.0083 107.062 61.4089 107.062ZM65.9803 108V99.2727H67.2544V102.516H67.3311C67.405 102.379 67.5115 102.222 67.6507 102.043C67.79 101.864 67.9831 101.707 68.2303 101.574C68.4775 101.438 68.8042 101.369 69.2104 101.369C69.7388 101.369 70.2104 101.503 70.6252 101.77C71.04 102.037 71.3652 102.422 71.601 102.925C71.8397 103.428 71.959 104.033 71.959 104.74C71.959 105.447 71.8411 106.054 71.6053 106.56C71.3695 107.062 71.0456 107.45 70.6337 107.723C70.2218 107.993 69.7516 108.128 69.2232 108.128C68.8255 108.128 68.5002 108.061 68.2473 107.928C67.9973 107.794 67.8013 107.638 67.6593 107.459C67.5172 107.28 67.4078 107.121 67.3311 106.982H67.2246V108H65.9803ZM67.2289 104.727C67.2289 105.187 67.2956 105.591 67.4292 105.938C67.5627 106.284 67.7559 106.555 68.0087 106.751C68.2615 106.945 68.5712 107.041 68.9377 107.041C69.3184 107.041 69.6365 106.94 69.8922 106.739C70.1479 106.534 70.3411 106.257 70.4718 105.908C70.6053 105.558 70.6721 105.165 70.6721 104.727C70.6721 104.295 70.6067 103.908 70.476 103.564C70.3482 103.22 70.155 102.949 69.8965 102.75C69.6408 102.551 69.3212 102.452 68.9377 102.452C68.5684 102.452 68.2559 102.547 68.0002 102.737C67.7473 102.928 67.5556 103.193 67.4249 103.534C67.2942 103.875 67.2289 104.273 67.2289 104.727ZM73.3897 108V101.455H74.6639V108H73.3897ZM74.0332 100.445C73.8116 100.445 73.6213 100.371 73.4622 100.223C73.3059 100.072 73.2278 99.8935 73.2278 99.6861C73.2278 99.4759 73.3059 99.2969 73.4622 99.1491C73.6213 98.9986 73.8116 98.9233 74.0332 98.9233C74.2548 98.9233 74.4437 98.9986 74.6 99.1491C74.7591 99.2969 74.8386 99.4759 74.8386 99.6861C74.8386 99.8935 74.7591 100.072 74.6 100.223C74.4437 100.371 74.2548 100.445 74.0332 100.445ZM77.6522 99.2727V108H76.378V99.2727H77.6522ZM82.1873 108.132C81.5424 108.132 80.987 107.994 80.5211 107.719C80.0581 107.44 79.7001 107.05 79.4473 106.547C79.1973 106.041 79.0723 105.449 79.0723 104.77C79.0723 104.099 79.1973 103.509 79.4473 102.997C79.7001 102.486 80.0524 102.087 80.5041 101.8C80.9586 101.513 81.4899 101.369 82.0978 101.369C82.4672 101.369 82.8251 101.43 83.1717 101.553C83.5183 101.675 83.8294 101.866 84.1049 102.128C84.3805 102.389 84.5978 102.729 84.7569 103.146C84.916 103.561 84.9956 104.065 84.9956 104.659V105.111H79.7924V104.156H83.747C83.747 103.821 83.6788 103.524 83.5424 103.266C83.4061 103.004 83.2143 102.798 82.9672 102.648C82.7228 102.497 82.4359 102.422 82.1064 102.422C81.7484 102.422 81.4359 102.51 81.1689 102.686C80.9047 102.859 80.7001 103.087 80.5552 103.368C80.4132 103.646 80.3422 103.949 80.3422 104.276V105.021C80.3422 105.459 80.4189 105.831 80.5723 106.138C80.7285 106.445 80.9458 106.679 81.2243 106.841C81.5027 107 81.8279 107.08 82.2001 107.08C82.4416 107.08 82.6618 107.045 82.8606 106.977C83.0595 106.906 83.2314 106.801 83.3762 106.662C83.5211 106.523 83.6319 106.351 83.7086 106.146L84.9146 106.364C84.818 106.719 84.6447 107.03 84.3947 107.297C84.1475 107.561 83.8365 107.767 83.4615 107.915C83.0893 108.06 82.6646 108.132 82.1873 108.132ZM91.3141 103.053L90.1593 103.257C90.111 103.109 90.0343 102.969 89.9292 102.835C89.8269 102.702 89.6877 102.592 89.5115 102.507C89.3354 102.422 89.1152 102.379 88.851 102.379C88.4902 102.379 88.1891 102.46 87.9476 102.622C87.7061 102.781 87.5854 102.987 87.5854 103.24C87.5854 103.459 87.6664 103.635 87.8283 103.768C87.9902 103.902 88.2516 104.011 88.6124 104.097L89.6522 104.335C90.2544 104.474 90.7033 104.689 90.9988 104.979C91.2942 105.268 91.4419 105.645 91.4419 106.108C91.4419 106.5 91.3283 106.849 91.101 107.156C90.8766 107.46 90.5627 107.699 90.1593 107.872C89.7587 108.045 89.2942 108.132 88.7658 108.132C88.0328 108.132 87.4348 107.976 86.9718 107.663C86.5087 107.348 86.2246 106.901 86.1195 106.321L87.351 106.134C87.4277 106.455 87.5854 106.697 87.824 106.862C88.0627 107.024 88.3738 107.105 88.7573 107.105C89.1749 107.105 89.5087 107.018 89.7587 106.845C90.0087 106.669 90.1337 106.455 90.1337 106.202C90.1337 105.997 90.057 105.825 89.9036 105.686C89.753 105.547 89.5215 105.442 89.209 105.371L88.101 105.128C87.4902 104.989 87.0385 104.767 86.7459 104.463C86.4561 104.159 86.3113 103.774 86.3113 103.308C86.3113 102.922 86.4192 102.584 86.6351 102.294C86.851 102.004 87.1493 101.778 87.53 101.616C87.9107 101.452 88.3468 101.369 88.8382 101.369C89.5456 101.369 90.1025 101.523 90.5087 101.83C90.915 102.134 91.1834 102.541 91.3141 103.053ZM98.5584 108.124C97.9732 108.124 97.4689 108.017 97.0456 107.804C96.6252 107.591 96.3013 107.301 96.074 106.935C95.8468 106.565 95.7331 106.148 95.7331 105.682C95.7331 105.327 95.807 105.011 95.9547 104.736C96.1025 104.457 96.3084 104.2 96.5726 103.964C96.8368 103.729 97.1422 103.491 97.4888 103.253L98.8951 102.26C99.1337 102.104 99.3198 101.939 99.4533 101.766C99.5868 101.589 99.6536 101.372 99.6536 101.114C99.6536 100.909 99.5655 100.713 99.3894 100.526C99.2132 100.338 98.9775 100.244 98.682 100.244C98.4775 100.244 98.2971 100.294 98.1408 100.393C97.9874 100.493 97.8667 100.621 97.7786 100.777C97.6934 100.93 97.6507 101.092 97.6507 101.263C97.6507 101.462 97.7047 101.662 97.8127 101.864C97.9235 102.065 98.0655 102.274 98.2388 102.49C98.4121 102.703 98.5939 102.925 98.7843 103.155L102.837 108H101.396L98.0428 104.058C97.7615 103.726 97.5002 103.413 97.2587 103.121C97.0172 102.825 96.8212 102.527 96.6706 102.226C96.5229 101.922 96.449 101.594 96.449 101.241C96.449 100.841 96.54 100.486 96.7218 100.176C96.9064 99.8636 97.1635 99.6193 97.4931 99.4432C97.8226 99.267 98.209 99.179 98.6522 99.179C99.101 99.179 99.486 99.267 99.807 99.4432C100.131 99.6165 100.379 99.848 100.553 100.138C100.729 100.425 100.817 100.739 100.817 101.08C100.817 101.494 100.713 101.861 100.506 102.179C100.301 102.494 100.019 102.784 99.6578 103.048L97.9064 104.339C97.5655 104.589 97.3283 104.837 97.1948 105.081C97.0641 105.322 96.9988 105.511 96.9988 105.648C96.9988 105.898 97.0627 106.129 97.1905 106.342C97.3212 106.555 97.503 106.726 97.736 106.854C97.9718 106.982 98.2473 107.045 98.5627 107.045C98.8865 107.045 99.2019 106.976 99.5087 106.837C99.8184 106.695 100.098 106.491 100.348 106.227C100.601 105.963 100.801 105.646 100.949 105.277C101.097 104.908 101.171 104.494 101.171 104.037H102.321C102.321 104.599 102.257 105.075 102.129 105.464C102.002 105.851 101.847 106.166 101.665 106.411C101.486 106.652 101.317 106.841 101.158 106.977C101.107 107.023 101.058 107.068 101.013 107.114C100.968 107.159 100.919 107.205 100.868 107.25C100.573 107.548 100.215 107.768 99.7942 107.911C99.3766 108.053 98.9647 108.124 98.5584 108.124ZM41.6335 123H40.2358L43.3764 114.273H44.8977L48.0384 123H46.6406L44.1733 115.858H44.1051L41.6335 123ZM41.8679 119.582H46.402V120.69H41.8679V119.582ZM51.848 123.132C51.2145 123.132 50.669 122.989 50.2116 122.702C49.7571 122.412 49.4077 122.013 49.1634 121.504C48.919 120.996 48.7969 120.413 48.7969 119.757C48.7969 119.092 48.9219 118.506 49.1719 117.997C49.4219 117.486 49.7741 117.087 50.2287 116.8C50.6832 116.513 51.2188 116.369 51.8352 116.369C52.3324 116.369 52.7756 116.462 53.1648 116.646C53.554 116.828 53.8679 117.084 54.1065 117.413C54.348 117.743 54.4915 118.128 54.5369 118.568H53.2969C53.2287 118.261 53.0724 117.997 52.8281 117.776C52.5866 117.554 52.2628 117.443 51.8565 117.443C51.5014 117.443 51.1903 117.537 50.9233 117.724C50.6591 117.909 50.4531 118.173 50.3054 118.517C50.1577 118.858 50.0838 119.261 50.0838 119.727C50.0838 120.205 50.1563 120.616 50.3011 120.963C50.446 121.31 50.6506 121.578 50.9148 121.768C51.1818 121.959 51.4957 122.054 51.8565 122.054C52.098 122.054 52.3168 122.01 52.5128 121.922C52.7116 121.831 52.8778 121.702 53.0114 121.534C53.1477 121.366 53.2429 121.165 53.2969 120.929H54.5369C54.4915 121.352 54.3537 121.73 54.1236 122.062C53.8935 122.395 53.5852 122.656 53.1989 122.847C52.8153 123.037 52.3651 123.132 51.848 123.132ZM58.6566 123.132C58.0231 123.132 57.4776 122.989 57.0202 122.702C56.5657 122.412 56.2163 122.013 55.9719 121.504C55.7276 120.996 55.6055 120.413 55.6055 119.757C55.6055 119.092 55.7305 118.506 55.9805 117.997C56.2305 117.486 56.5827 117.087 57.0373 116.8C57.4918 116.513 58.0273 116.369 58.6438 116.369C59.141 116.369 59.5842 116.462 59.9734 116.646C60.3626 116.828 60.6765 117.084 60.9151 117.413C61.1566 117.743 61.3001 118.128 61.3455 118.568H60.1055C60.0373 118.261 59.881 117.997 59.6367 117.776C59.3952 117.554 59.0714 117.443 58.6651 117.443C58.31 117.443 57.9989 117.537 57.7319 117.724C57.4677 117.909 57.2617 118.173 57.114 118.517C56.9663 118.858 56.8924 119.261 56.8924 119.727C56.8924 120.205 56.9648 120.616 57.1097 120.963C57.2546 121.31 57.4592 121.578 57.7234 121.768C57.9904 121.959 58.3043 122.054 58.6651 122.054C58.9066 122.054 59.1254 122.01 59.3214 121.922C59.5202 121.831 59.6864 121.702 59.82 121.534C59.9563 121.366 60.0515 121.165 60.1055 120.929H61.3455C61.3001 121.352 61.1623 121.73 60.9322 122.062C60.7021 122.395 60.3938 122.656 60.0075 122.847C59.6239 123.037 59.1737 123.132 58.6566 123.132ZM65.5291 123.132C64.8842 123.132 64.3288 122.994 63.8629 122.719C63.3999 122.44 63.0419 122.05 62.7891 121.547C62.5391 121.041 62.4141 120.449 62.4141 119.77C62.4141 119.099 62.5391 118.509 62.7891 117.997C63.0419 117.486 63.3942 117.087 63.8459 116.8C64.3004 116.513 64.8317 116.369 65.4396 116.369C65.8089 116.369 66.1669 116.43 66.5135 116.553C66.8601 116.675 67.1712 116.866 67.4467 117.128C67.7223 117.389 67.9396 117.729 68.0987 118.146C68.2578 118.561 68.3374 119.065 68.3374 119.659V120.111H63.1342V119.156H67.0888C67.0888 118.821 67.0206 118.524 66.8842 118.266C66.7479 118.004 66.5561 117.798 66.3089 117.648C66.0646 117.497 65.7777 117.422 65.4482 117.422C65.0902 117.422 64.7777 117.51 64.5107 117.686C64.2464 117.859 64.0419 118.087 63.897 118.368C63.755 118.646 63.6839 118.949 63.6839 119.276V120.021C63.6839 120.459 63.7607 120.831 63.9141 121.138C64.0703 121.445 64.2876 121.679 64.5661 121.841C64.8445 122 65.1697 122.08 65.5419 122.08C65.7834 122.08 66.0036 122.045 66.2024 121.977C66.4013 121.906 66.5732 121.801 66.718 121.662C66.8629 121.523 66.9737 121.351 67.0504 121.146L68.2564 121.364C68.1598 121.719 67.9865 122.03 67.7365 122.297C67.4893 122.561 67.1783 122.767 66.8033 122.915C66.4311 123.06 66.0064 123.132 65.5291 123.132ZM74.6559 118.053L73.5011 118.257C73.4528 118.109 73.3761 117.969 73.271 117.835C73.1687 117.702 73.0295 117.592 72.8533 117.507C72.6772 117.422 72.457 117.379 72.1928 117.379C71.832 117.379 71.5309 117.46 71.2894 117.622C71.0479 117.781 70.9272 117.987 70.9272 118.24C70.9272 118.459 71.0082 118.635 71.1701 118.768C71.332 118.902 71.5934 119.011 71.9542 119.097L72.994 119.335C73.5962 119.474 74.0451 119.689 74.3406 119.979C74.636 120.268 74.7837 120.645 74.7837 121.108C74.7837 121.5 74.6701 121.849 74.4428 122.156C74.2184 122.46 73.9045 122.699 73.5011 122.872C73.1005 123.045 72.636 123.132 72.1076 123.132C71.3746 123.132 70.7766 122.976 70.3136 122.663C69.8505 122.348 69.5664 121.901 69.4613 121.321L70.6928 121.134C70.7695 121.455 70.9272 121.697 71.1658 121.862C71.4045 122.024 71.7156 122.105 72.0991 122.105C72.5167 122.105 72.8505 122.018 73.1005 121.845C73.3505 121.669 73.4755 121.455 73.4755 121.202C73.4755 120.997 73.3988 120.825 73.2454 120.686C73.0948 120.547 72.8633 120.442 72.5508 120.371L71.4428 120.128C70.832 119.989 70.3803 119.767 70.0877 119.463C69.7979 119.159 69.6531 118.774 69.6531 118.308C69.6531 117.922 69.761 117.584 69.9769 117.294C70.1928 117.004 70.4911 116.778 70.8718 116.616C71.2525 116.452 71.6886 116.369 72.18 116.369C72.8874 116.369 73.4442 116.523 73.8505 116.83C74.2567 117.134 74.5252 117.541 74.6559 118.053ZM81.0895 118.053L79.9347 118.257C79.8864 118.109 79.8097 117.969 79.7045 117.835C79.6023 117.702 79.4631 117.592 79.2869 117.507C79.1108 117.422 78.8906 117.379 78.6264 117.379C78.2656 117.379 77.9645 117.46 77.723 117.622C77.4815 117.781 77.3608 117.987 77.3608 118.24C77.3608 118.459 77.4418 118.635 77.6037 118.768C77.7656 118.902 78.027 119.011 78.3878 119.097L79.4276 119.335C80.0298 119.474 80.4787 119.689 80.7741 119.979C81.0696 120.268 81.2173 120.645 81.2173 121.108C81.2173 121.5 81.1037 121.849 80.8764 122.156C80.652 122.46 80.3381 122.699 79.9347 122.872C79.5341 123.045 79.0696 123.132 78.5412 123.132C77.8082 123.132 77.2102 122.976 76.7472 122.663C76.2841 122.348 76 121.901 75.8949 121.321L77.1264 121.134C77.2031 121.455 77.3608 121.697 77.5994 121.862C77.8381 122.024 78.1491 122.105 78.5327 122.105C78.9503 122.105 79.2841 122.018 79.5341 121.845C79.7841 121.669 79.9091 121.455 79.9091 121.202C79.9091 120.997 79.8324 120.825 79.679 120.686C79.5284 120.547 79.2969 120.442 78.9844 120.371L77.8764 120.128C77.2656 119.989 76.8139 119.767 76.5213 119.463C76.2315 119.159 76.0866 118.774 76.0866 118.308C76.0866 117.922 76.1946 117.584 76.4105 117.294C76.6264 117.004 76.9247 116.778 77.3054 116.616C77.6861 116.452 78.1222 116.369 78.6136 116.369C79.321 116.369 79.8778 116.523 80.2841 116.83C80.6903 117.134 80.9588 117.541 81.0895 118.053ZM85.3754 123.132C84.7617 123.132 84.2262 122.991 83.7688 122.71C83.3114 122.429 82.9563 122.036 82.7035 121.53C82.4506 121.024 82.3242 120.433 82.3242 119.757C82.3242 119.078 82.4506 118.484 82.7035 117.976C82.9563 117.467 83.3114 117.072 83.7688 116.791C84.2262 116.51 84.7617 116.369 85.3754 116.369C85.989 116.369 86.5245 116.51 86.9819 116.791C87.4393 117.072 87.7944 117.467 88.0472 117.976C88.3001 118.484 88.4265 119.078 88.4265 119.757C88.4265 120.433 88.3001 121.024 88.0472 121.53C87.7944 122.036 87.4393 122.429 86.9819 122.71C86.5245 122.991 85.989 123.132 85.3754 123.132ZM85.3796 122.062C85.7773 122.062 86.1069 121.957 86.3683 121.747C86.6296 121.537 86.8228 121.257 86.9478 120.908C87.0756 120.558 87.1396 120.173 87.1396 119.753C87.1396 119.335 87.0756 118.952 86.9478 118.602C86.8228 118.25 86.6296 117.967 86.3683 117.754C86.1069 117.541 85.7773 117.435 85.3796 117.435C84.979 117.435 84.6467 117.541 84.3825 117.754C84.1211 117.967 83.9265 118.25 83.7987 118.602C83.6737 118.952 83.6112 119.335 83.6112 119.753C83.6112 120.173 83.6737 120.558 83.7987 120.908C83.9265 121.257 84.1211 121.537 84.3825 121.747C84.6467 121.957 84.979 122.062 85.3796 122.062ZM89.8487 123V116.455H91.0803V117.494H91.1484C91.2678 117.142 91.478 116.865 91.7791 116.663C92.0831 116.459 92.4268 116.357 92.8104 116.357C92.8899 116.357 92.9837 116.359 93.0916 116.365C93.2024 116.371 93.2891 116.378 93.3516 116.386V117.605C93.3004 117.591 93.2095 117.575 93.0788 117.558C92.9482 117.538 92.8175 117.528 92.6868 117.528C92.3857 117.528 92.1172 117.592 91.8814 117.72C91.6484 117.845 91.4638 118.02 91.3274 118.244C91.1911 118.466 91.1229 118.719 91.1229 119.003V123H89.8487ZM94.4542 123V116.455H95.7283V123H94.4542ZM95.0977 115.445C94.8761 115.445 94.6857 115.371 94.5266 115.223C94.3704 115.072 94.2923 114.893 94.2923 114.686C94.2923 114.476 94.3704 114.297 94.5266 114.149C94.6857 113.999 94.8761 113.923 95.0977 113.923C95.3192 113.923 95.5082 113.999 95.6644 114.149C95.8235 114.297 95.9031 114.476 95.9031 114.686C95.9031 114.893 95.8235 115.072 95.6644 115.223C95.5082 115.371 95.3192 115.445 95.0977 115.445ZM100.263 123.132C99.6186 123.132 99.0632 122.994 98.5973 122.719C98.1342 122.44 97.7763 122.05 97.5234 121.547C97.2734 121.041 97.1484 120.449 97.1484 119.77C97.1484 119.099 97.2734 118.509 97.5234 117.997C97.7763 117.486 98.1286 117.087 98.5803 116.8C99.0348 116.513 99.5661 116.369 100.174 116.369C100.543 116.369 100.901 116.43 101.248 116.553C101.594 116.675 101.906 116.866 102.181 117.128C102.457 117.389 102.674 117.729 102.833 118.146C102.992 118.561 103.072 119.065 103.072 119.659V120.111H97.8686V119.156H101.823C101.823 118.821 101.755 118.524 101.619 118.266C101.482 118.004 101.29 117.798 101.043 117.648C100.799 117.497 100.512 117.422 100.183 117.422C99.8246 117.422 99.5121 117.51 99.245 117.686C98.9808 117.859 98.7763 118.087 98.6314 118.368C98.4893 118.646 98.4183 118.949 98.4183 119.276V120.021C98.4183 120.459 98.495 120.831 98.6484 121.138C98.8047 121.445 99.022 121.679 99.3004 121.841C99.5788 122 99.9041 122.08 100.276 122.08C100.518 122.08 100.738 122.045 100.937 121.977C101.136 121.906 101.308 121.801 101.452 121.662C101.597 121.523 101.708 121.351 101.785 121.146L102.991 121.364C102.894 121.719 102.721 122.03 102.471 122.297C102.224 122.561 101.913 122.767 101.538 122.915C101.165 123.06 100.741 123.132 100.263 123.132ZM109.39 118.053L108.235 118.257C108.187 118.109 108.11 117.969 108.005 117.835C107.903 117.702 107.764 117.592 107.588 117.507C107.412 117.422 107.191 117.379 106.927 117.379C106.566 117.379 106.265 117.46 106.024 117.622C105.782 117.781 105.662 117.987 105.662 118.24C105.662 118.459 105.743 118.635 105.904 118.768C106.066 118.902 106.328 119.011 106.689 119.097L107.728 119.335C108.331 119.474 108.779 119.689 109.075 119.979C109.37 120.268 109.518 120.645 109.518 121.108C109.518 121.5 109.404 121.849 109.177 122.156C108.953 122.46 108.639 122.699 108.235 122.872C107.835 123.045 107.37 123.132 106.842 123.132C106.109 123.132 105.511 122.976 105.048 122.663C104.585 122.348 104.301 121.901 104.196 121.321L105.427 121.134C105.504 121.455 105.662 121.697 105.9 121.862C106.139 122.024 106.45 122.105 106.833 122.105C107.251 122.105 107.585 122.018 107.835 121.845C108.085 121.669 108.21 121.455 108.21 121.202C108.21 120.997 108.133 120.825 107.98 120.686C107.829 120.547 107.598 120.442 107.285 120.371L106.177 120.128C105.566 119.989 105.115 119.767 104.822 119.463C104.532 119.159 104.387 118.774 104.387 118.308C104.387 117.922 104.495 117.584 104.711 117.294C104.927 117.004 105.225 116.778 105.606 116.616C105.987 116.452 106.423 116.369 106.914 116.369C107.622 116.369 108.179 116.523 108.585 116.83C108.991 117.134 109.26 117.541 109.39 118.053Z" fill="#18191A"/>
<rect x="43" y="12" width="64.9167" height="82"/>
</svg>
