<svg width="60" height="60" viewBox="0 0 60 60" fill="none" xmlns="http://www.w3.org/2000/svg">
<g clip-path="url(#clip0_56_3230)">
<path d="M30 60C46.5685 60 60 46.5685 60 30C60 13.4315 46.5685 0 30 0C13.4315 0 0 13.4315 0 30C0 46.5685 13.4315 60 30 60Z" fill="#ACB7B8"/>
<path d="M30 26.605C35.4495 26.605 39.8672 22.1873 39.8672 16.7378C39.8672 11.2883 35.4495 6.87061 30 6.87061C24.5505 6.87061 20.1328 11.2883 20.1328 16.7378C20.1328 22.1873 24.5505 26.605 30 26.605Z" fill="#F6F7F8"/>
<path d="M30.0004 53.1281C26.3752 53.128 22.8474 51.9545 19.9444 49.783C17.0415 47.6116 14.9194 44.5588 13.8953 41.0812C12.1281 35.0801 16.627 29.0625 22.8836 29.0625H37.1172C43.3738 29.0625 47.8727 35.0777 46.1055 41.0789C45.0819 44.5569 42.9599 47.6102 40.0569 49.7821C37.154 51.954 33.6259 53.1278 30.0004 53.1281Z" fill="#EAEDEE"/>
</g>
<defs>
<clipPath id="clip0_56_3230">
<rect width="60" height="60" fill="white"/>
</clipPath>
</defs>
</svg>
