<svg width="150" height="130" viewBox="0 0 150 130" fill="none" xmlns="http://www.w3.org/2000/svg">
<rect width="150" height="130" fill="#F6FAFB"/>
<rect x="40.9766" y="12" width="68.045" height="82"/>
<path d="M29.0875 116L26.6671 107.273H28.052L29.7523 114.031H29.8333L31.6017 107.273H32.9739L34.7424 114.036H34.8233L36.5194 107.273H37.9086L35.4838 116H34.1586L32.3219 109.463H32.2537L30.4171 116H29.0875ZM40.2672 116.145C39.8525 116.145 39.4775 116.068 39.1422 115.915C38.807 115.759 38.5414 115.533 38.3453 115.237C38.1522 114.942 38.0556 114.58 38.0556 114.151C38.0556 113.781 38.1266 113.477 38.2686 113.239C38.4107 113 38.6025 112.811 38.8439 112.672C39.0854 112.533 39.3553 112.428 39.6536 112.357C39.9519 112.286 40.2559 112.232 40.5655 112.195C40.9576 112.149 41.2757 112.112 41.5201 112.084C41.7644 112.053 41.9419 112.003 42.0527 111.935C42.1635 111.866 42.2189 111.756 42.2189 111.602V111.572C42.2189 111.2 42.1138 110.912 41.9036 110.707C41.6962 110.503 41.3865 110.401 40.9746 110.401C40.5456 110.401 40.2076 110.496 39.9604 110.686C39.7161 110.874 39.5471 111.082 39.4533 111.312L38.2559 111.04C38.3979 110.642 38.6053 110.321 38.878 110.077C39.1536 109.83 39.4703 109.651 39.8283 109.54C40.1863 109.426 40.5627 109.369 40.9576 109.369C41.2189 109.369 41.4959 109.401 41.7885 109.463C42.084 109.523 42.3596 109.634 42.6152 109.795C42.8738 109.957 43.0854 110.189 43.2502 110.49C43.415 110.788 43.4973 111.176 43.4973 111.653V116H42.253V115.105H42.2019C42.1195 115.27 41.9959 115.432 41.8311 115.591C41.6664 115.75 41.4547 115.882 41.1962 115.987C40.9377 116.092 40.628 116.145 40.2672 116.145ZM40.5442 115.122C40.8965 115.122 41.1976 115.053 41.4476 114.913C41.7005 114.774 41.8922 114.592 42.0229 114.368C42.1564 114.141 42.2232 113.898 42.2232 113.639V112.795C42.1777 112.841 42.0897 112.884 41.959 112.923C41.8311 112.96 41.6848 112.993 41.5201 113.021C41.3553 113.047 41.1948 113.071 41.0385 113.094C40.8823 113.114 40.7516 113.131 40.6465 113.145C40.3993 113.176 40.1735 113.229 39.9689 113.303C39.7672 113.376 39.6053 113.483 39.4831 113.622C39.3638 113.759 39.3042 113.94 39.3042 114.168C39.3042 114.483 39.4206 114.722 39.6536 114.884C39.8865 115.043 40.1834 115.122 40.5442 115.122ZM48.2498 109.455V110.477H44.6745V109.455H48.2498ZM45.6333 107.886H46.9075V114.078C46.9075 114.325 46.9444 114.511 47.0183 114.636C47.0922 114.759 47.1873 114.842 47.3038 114.888C47.4231 114.93 47.5524 114.952 47.6916 114.952C47.7939 114.952 47.8833 114.945 47.96 114.93C48.0368 114.916 48.0964 114.905 48.139 114.896L48.3691 115.949C48.2953 115.977 48.1902 116.006 48.0538 116.034C47.9174 116.065 47.747 116.082 47.5424 116.085C47.2072 116.091 46.8947 116.031 46.6049 115.906C46.3152 115.781 46.0808 115.588 45.9018 115.327C45.7228 115.065 45.6333 114.737 45.6333 114.342V107.886ZM52.3461 116.132C51.7125 116.132 51.1671 115.989 50.7097 115.702C50.2551 115.412 49.9057 115.013 49.6614 114.504C49.4171 113.996 49.2949 113.413 49.2949 112.757C49.2949 112.092 49.4199 111.506 49.6699 110.997C49.9199 110.486 50.2722 110.087 50.7267 109.8C51.1813 109.513 51.7168 109.369 52.3333 109.369C52.8304 109.369 53.2736 109.462 53.6628 109.646C54.052 109.828 54.3659 110.084 54.6046 110.413C54.8461 110.743 54.9895 111.128 55.035 111.568H53.7949C53.7267 111.261 53.5705 110.997 53.3262 110.776C53.0847 110.554 52.7608 110.443 52.3546 110.443C51.9995 110.443 51.6884 110.537 51.4213 110.724C51.1571 110.909 50.9512 111.173 50.8034 111.517C50.6557 111.858 50.5819 112.261 50.5819 112.727C50.5819 113.205 50.6543 113.616 50.7992 113.963C50.9441 114.31 51.1486 114.578 51.4128 114.768C51.6799 114.959 51.9938 115.054 52.3546 115.054C52.5961 115.054 52.8148 115.01 53.0108 114.922C53.2097 114.831 53.3759 114.702 53.5094 114.534C53.6458 114.366 53.7409 114.165 53.7949 113.929H55.035C54.9895 114.352 54.8517 114.73 54.6216 115.062C54.3915 115.395 54.0833 115.656 53.6969 115.847C53.3134 116.037 52.8631 116.132 52.3461 116.132ZM57.6717 112.114V116H56.3975V107.273H57.6547V110.52H57.7356C57.889 110.168 58.1234 109.888 58.4387 109.68C58.7541 109.473 59.166 109.369 59.6745 109.369C60.1234 109.369 60.5154 109.462 60.8507 109.646C61.1887 109.831 61.4501 110.107 61.6348 110.473C61.8223 110.837 61.916 111.291 61.916 111.837V116H60.6419V111.99C60.6419 111.51 60.5183 111.138 60.2711 110.874C60.024 110.607 59.6802 110.473 59.2399 110.473C58.9387 110.473 58.6689 110.537 58.4302 110.665C58.1944 110.793 58.0083 110.98 57.872 111.227C57.7385 111.472 57.6717 111.767 57.6717 112.114ZM66.4373 116.132C65.7924 116.132 65.237 115.994 64.7711 115.719C64.3081 115.44 63.9501 115.05 63.6973 114.547C63.4473 114.041 63.3223 113.449 63.3223 112.77C63.3223 112.099 63.4473 111.509 63.6973 110.997C63.9501 110.486 64.3024 110.087 64.7541 109.8C65.2086 109.513 65.7399 109.369 66.3478 109.369C66.7172 109.369 67.0751 109.43 67.4217 109.553C67.7683 109.675 68.0794 109.866 68.3549 110.128C68.6305 110.389 68.8478 110.729 69.0069 111.146C69.166 111.561 69.2456 112.065 69.2456 112.659V113.111H64.0424V112.156H67.997C67.997 111.821 67.9288 111.524 67.7924 111.266C67.6561 111.004 67.4643 110.798 67.2172 110.648C66.9728 110.497 66.6859 110.422 66.3564 110.422C65.9984 110.422 65.6859 110.51 65.4189 110.686C65.1547 110.859 64.9501 111.087 64.8052 111.368C64.6632 111.646 64.5922 111.949 64.5922 112.276V113.021C64.5922 113.459 64.6689 113.831 64.8223 114.138C64.9785 114.445 65.1958 114.679 65.4743 114.841C65.7527 115 66.0779 115.08 66.4501 115.08C66.6916 115.08 66.9118 115.045 67.1106 114.977C67.3095 114.906 67.4814 114.801 67.6262 114.662C67.7711 114.523 67.8819 114.351 67.9586 114.146L69.1646 114.364C69.068 114.719 68.8947 115.03 68.6447 115.297C68.3975 115.561 68.0865 115.767 67.7115 115.915C67.3393 116.06 66.9146 116.132 66.4373 116.132ZM75.5641 111.053L74.4093 111.257C74.361 111.109 74.2843 110.969 74.1792 110.835C74.0769 110.702 73.9377 110.592 73.7615 110.507C73.5854 110.422 73.3652 110.379 73.101 110.379C72.7402 110.379 72.4391 110.46 72.1976 110.622C71.9561 110.781 71.8354 110.987 71.8354 111.24C71.8354 111.459 71.9164 111.635 72.0783 111.768C72.2402 111.902 72.5016 112.011 72.8624 112.097L73.9022 112.335C74.5044 112.474 74.9533 112.689 75.2488 112.979C75.5442 113.268 75.6919 113.645 75.6919 114.108C75.6919 114.5 75.5783 114.849 75.351 115.156C75.1266 115.46 74.8127 115.699 74.4093 115.872C74.0087 116.045 73.5442 116.132 73.0158 116.132C72.2828 116.132 71.6848 115.976 71.2218 115.663C70.7587 115.348 70.4746 114.901 70.3695 114.321L71.601 114.134C71.6777 114.455 71.8354 114.697 72.074 114.862C72.3127 115.024 72.6238 115.105 73.0073 115.105C73.4249 115.105 73.7587 115.018 74.0087 114.845C74.2587 114.669 74.3837 114.455 74.3837 114.202C74.3837 113.997 74.307 113.825 74.1536 113.686C74.003 113.547 73.7715 113.442 73.459 113.371L72.351 113.128C71.7402 112.989 71.2885 112.767 70.9959 112.463C70.7061 112.159 70.5613 111.774 70.5613 111.308C70.5613 110.922 70.6692 110.584 70.8851 110.294C71.101 110.004 71.3993 109.778 71.78 109.616C72.1607 109.452 72.5968 109.369 73.0882 109.369C73.7956 109.369 74.3525 109.523 74.7587 109.83C75.165 110.134 75.4334 110.541 75.5641 111.053ZM83.3837 109.455V110.477H79.6848V109.455H83.3837ZM80.699 116V108.696C80.699 108.287 80.7885 107.947 80.9675 107.678C81.1465 107.405 81.3837 107.202 81.6792 107.068C81.9746 106.932 82.2956 106.864 82.6422 106.864C82.8979 106.864 83.1167 106.885 83.2985 106.928C83.4803 106.967 83.6152 107.004 83.7033 107.038L83.405 108.07C83.3453 108.053 83.2686 108.033 83.1749 108.01C83.0811 107.984 82.9675 107.972 82.834 107.972C82.5243 107.972 82.3027 108.048 82.1692 108.202C82.0385 108.355 81.9732 108.577 81.9732 108.866V116H80.699ZM87.1976 116.132C86.584 116.132 86.0485 115.991 85.5911 115.71C85.1337 115.429 84.7786 115.036 84.5257 114.53C84.2729 114.024 84.1465 113.433 84.1465 112.757C84.1465 112.078 84.2729 111.484 84.5257 110.976C84.7786 110.467 85.1337 110.072 85.5911 109.791C86.0485 109.51 86.584 109.369 87.1976 109.369C87.8113 109.369 88.3468 109.51 88.8042 109.791C89.2615 110.072 89.6167 110.467 89.8695 110.976C90.1223 111.484 90.2488 112.078 90.2488 112.757C90.2488 113.433 90.1223 114.024 89.8695 114.53C89.6167 115.036 89.2615 115.429 88.8042 115.71C88.3468 115.991 87.8113 116.132 87.1976 116.132ZM87.2019 115.062C87.5996 115.062 87.9292 114.957 88.1905 114.747C88.4519 114.537 88.6451 114.257 88.7701 113.908C88.8979 113.558 88.9618 113.173 88.9618 112.753C88.9618 112.335 88.8979 111.952 88.7701 111.602C88.6451 111.25 88.4519 110.967 88.1905 110.754C87.9292 110.541 87.5996 110.435 87.2019 110.435C86.8013 110.435 86.4689 110.541 86.2047 110.754C85.9434 110.967 85.7488 111.25 85.6209 111.602C85.4959 111.952 85.4334 112.335 85.4334 112.753C85.4334 113.173 85.4959 113.558 85.6209 113.908C85.7488 114.257 85.9434 114.537 86.2047 114.747C86.4689 114.957 86.8013 115.062 87.2019 115.062ZM91.671 116V109.455H92.9025V110.494H92.9707C93.09 110.142 93.3002 109.865 93.6014 109.663C93.9054 109.459 94.2491 109.357 94.6326 109.357C94.7122 109.357 94.8059 109.359 94.9139 109.365C95.0247 109.371 95.1113 109.378 95.1738 109.386V110.605C95.1227 110.591 95.0318 110.575 94.9011 110.558C94.7704 110.538 94.6397 110.528 94.5091 110.528C94.2079 110.528 93.9395 110.592 93.7037 110.72C93.4707 110.845 93.286 111.02 93.1497 111.244C93.0133 111.466 92.9451 111.719 92.9451 112.003V116H91.671ZM99.5545 107.273H101.153L103.931 114.057H104.033L106.812 107.273H108.41V116H107.157V109.685H107.076L104.502 115.987H103.462L100.888 109.68H100.807V116H99.5545V107.273ZM113.043 116.132C112.398 116.132 111.843 115.994 111.377 115.719C110.914 115.44 110.556 115.05 110.303 114.547C110.053 114.041 109.928 113.449 109.928 112.77C109.928 112.099 110.053 111.509 110.303 110.997C110.556 110.486 110.908 110.087 111.36 109.8C111.814 109.513 112.345 109.369 112.953 109.369C113.323 109.369 113.681 109.43 114.027 109.553C114.374 109.675 114.685 109.866 114.96 110.128C115.236 110.389 115.453 110.729 115.612 111.146C115.771 111.561 115.851 112.065 115.851 112.659V113.111H110.648V112.156H114.602C114.602 111.821 114.534 111.524 114.398 111.266C114.262 111.004 114.07 110.798 113.823 110.648C113.578 110.497 113.291 110.422 112.962 110.422C112.604 110.422 112.291 110.51 112.024 110.686C111.76 110.859 111.556 111.087 111.411 111.368C111.269 111.646 111.198 111.949 111.198 112.276V113.021C111.198 113.459 111.274 113.831 111.428 114.138C111.584 114.445 111.801 114.679 112.08 114.841C112.358 115 112.683 115.08 113.056 115.08C113.297 115.08 113.517 115.045 113.716 114.977C113.915 114.906 114.087 114.801 114.232 114.662C114.377 114.523 114.487 114.351 114.564 114.146L115.77 114.364C115.673 114.719 115.5 115.03 115.25 115.297C115.003 115.561 114.692 115.767 114.317 115.915C113.945 116.06 113.52 116.132 113.043 116.132ZM118.539 112.114V116H117.265V109.455H118.488V110.52H118.569C118.719 110.173 118.955 109.895 119.276 109.685C119.6 109.474 120.008 109.369 120.499 109.369C120.945 109.369 121.336 109.463 121.671 109.651C122.006 109.835 122.266 110.111 122.451 110.477C122.635 110.844 122.728 111.297 122.728 111.837V116H121.454V111.99C121.454 111.516 121.33 111.145 121.083 110.878C120.836 110.608 120.496 110.473 120.064 110.473C119.769 110.473 119.506 110.537 119.276 110.665C119.049 110.793 118.868 110.98 118.735 111.227C118.604 111.472 118.539 111.767 118.539 112.114Z" fill="#18191A"/>
</svg>

