<svg width="24" height="25" viewBox="0 0 24 25" fill="none" xmlns="http://www.w3.org/2000/svg">
<path d="M12 2.5C15.7712 2.5 17.6569 2.5 18.8284 3.67157C20 4.84315 20 6.72876 20 10.5V14.5C20 18.2712 20 20.1569 18.8284 21.3284C17.6569 22.5 15.7712 22.5 12 22.5C8.22876 22.5 6.34315 22.5 5.17157 21.3284C4 20.1569 4 18.2712 4 14.5V10.5C4 6.72876 4 4.84315 5.17157 3.67157C6.34315 2.5 8.22876 2.5 12 2.5Z" stroke="#007272" stroke-width="1.5" stroke-linecap="round"/>
<path d="M4 10.5H20" stroke="#007272" stroke-width="1.5" stroke-linecap="round"/>
<path d="M8 6.5H8.00898" stroke="#007272" stroke-width="2" stroke-linecap="round" stroke-linejoin="round"/>
<path d="M8 17.5V14.5" stroke="#007272" stroke-width="1.5" stroke-linecap="round"/>
</svg>
