<svg width="20" height="22" viewBox="0 0 20 22" fill="none" xmlns="http://www.w3.org/2000/svg">
<path d="M5.08848 3.76243L4.08847 4.54298C2.57181 5.72681 1.81348 6.31873 1.40674 7.15333C1 7.98792 1 8.95205 1 10.8803V12.9715C1 16.7562 1 18.6485 2.17157 19.8243C3.34315 21 5.22876 21 9 21H11C14.7712 21 16.6569 21 17.8284 19.8243C19 18.6485 19 16.7562 19 12.9715V10.8803C19 8.95205 19 7.98792 18.5933 7.15333C18.1865 6.31873 17.4282 5.72681 15.9115 4.54298L14.9115 3.76243C12.5521 1.92081 11.3724 1 10 1C8.6276 1 7.44787 1.92081 5.08848 3.76243Z" stroke="#007272" stroke-width="1.5" stroke-linejoin="round"/>
</svg>
