<svg width="29" height="29" viewBox="0 0 29 29" fill="none" xmlns="http://www.w3.org/2000/svg">
<path d="M12.1698 14.5355C12.1698 13.2458 13.2148 12.1999 14.5042 12.1999C15.7936 12.1999 16.8391 13.2458 16.8391 14.5355C16.8391 15.8253 15.7936 16.8711 14.5042 16.8711C13.2148 16.8711 12.1698 15.8253 12.1698 14.5355ZM10.9076 14.5355C10.9076 16.5225 12.5178 18.1331 14.5042 18.1331C16.4906 18.1331 18.1008 16.5225 18.1008 14.5355C18.1008 12.5486 16.4906 10.9379 14.5042 10.9379C12.5178 10.9379 10.9076 12.5486 10.9076 14.5355ZM17.4026 10.7953C17.4026 10.9615 17.4518 11.1241 17.5441 11.2624C17.6364 11.4007 17.7676 11.5085 17.9212 11.5722C18.0748 11.6359 18.2437 11.6526 18.4068 11.6203C18.5699 11.5879 18.7196 11.5079 18.8372 11.3903C18.9548 11.2728 19.0349 11.123 19.0674 10.9599C19.0999 10.7969 19.0834 10.6278 19.0198 10.4742C18.9563 10.3205 18.8486 10.1892 18.7104 10.0967C18.5722 10.0043 18.4097 9.95492 18.2435 9.95485H18.2432C18.0203 9.95495 17.8067 10.0435 17.6491 10.2011C17.4915 10.3587 17.4028 10.5724 17.4026 10.7953ZM11.6745 20.2384C10.9916 20.2073 10.6205 20.0935 10.3738 19.9974C10.0468 19.8701 9.81346 19.7184 9.56814 19.4733C9.32283 19.2283 9.17098 18.9951 9.04423 18.668C8.94808 18.4214 8.83433 18.05 8.80329 17.3669C8.76933 16.6284 8.76255 16.4066 8.76255 14.5356C8.76255 12.6646 8.76989 12.4433 8.80329 11.7042C8.83438 11.0211 8.94897 10.6505 9.04423 10.4031C9.17154 10.076 9.32317 9.84264 9.56814 9.59725C9.81312 9.35187 10.0462 9.19997 10.3738 9.07319C10.6203 8.97701 10.9916 8.86323 11.6745 8.83217C12.4128 8.79821 12.6346 8.79143 14.5042 8.79143C16.3738 8.79143 16.5958 8.79877 17.3347 8.83217C18.0176 8.86328 18.3882 8.9779 18.6354 9.07319C18.9625 9.19997 19.1958 9.3522 19.4411 9.59725C19.6864 9.8423 19.8377 10.076 19.965 10.4031C20.0612 10.6498 20.1749 11.0211 20.206 11.7042C20.2399 12.4433 20.2467 12.6646 20.2467 14.5356C20.2467 16.4066 20.2399 16.6278 20.206 17.3669C20.1749 18.05 20.0605 18.4213 19.965 18.668C19.8377 18.9951 19.6861 19.2285 19.4411 19.4733C19.1961 19.7182 18.9625 19.8701 18.6354 19.9974C18.3889 20.0936 18.0176 20.2074 17.3347 20.2384C16.5964 20.2724 16.3747 20.2792 14.5042 20.2792C12.6337 20.2792 12.4126 20.2724 11.6745 20.2384ZM11.6165 7.57173C10.8709 7.60569 10.3614 7.72396 9.91639 7.89715C9.45557 8.07601 9.06547 8.31596 8.67564 8.70528C8.28582 9.0946 8.04655 9.48543 7.86775 9.94639C7.6946 10.3918 7.57637 10.9011 7.54242 11.647C7.5079 12.394 7.5 12.6329 7.5 14.5355C7.5 16.4382 7.5079 16.677 7.54242 17.424C7.57637 18.17 7.6946 18.6793 7.86775 19.1247C8.04655 19.5853 8.28587 19.9766 8.67564 20.3658C9.06541 20.7549 9.45557 20.9945 9.91639 21.1739C10.3622 21.3471 10.8709 21.4653 11.6165 21.4993C12.3637 21.5333 12.6021 21.5417 14.5042 21.5417C16.4063 21.5417 16.6451 21.5338 17.3919 21.4993C18.1376 21.4653 18.6468 21.3471 19.092 21.1739C19.5525 20.9945 19.9429 20.7551 20.3328 20.3658C20.7226 19.9764 20.9613 19.5853 21.1407 19.1247C21.3138 18.6793 21.4326 18.1699 21.466 17.424C21.4999 16.6765 21.5078 16.4382 21.5078 14.5355C21.5078 12.6329 21.4999 12.394 21.466 11.647C21.432 10.9011 21.3138 10.3915 21.1407 9.94639C20.9613 9.48571 20.722 9.09522 20.3328 8.70528C19.9435 8.31534 19.5525 8.07601 19.0926 7.89715C18.6468 7.72396 18.1375 7.60513 17.3925 7.57173C16.6456 7.53776 16.4069 7.5293 14.5048 7.5293C12.6026 7.5293 12.3637 7.5372 11.6165 7.57173Z" fill="#6B7280"/>
</svg>
