<svg width="29" height="29" viewBox="0 0 29 29" fill="none" xmlns="http://www.w3.org/2000/svg">
<path d="M14.4135 22.8397C9.77738 22.8397 6.00391 19.0663 6.00391 14.4301C6.00391 9.79399 9.77738 6.02051 14.4135 6.02051C19.0497 6.02051 22.8231 9.79399 22.8231 14.4301C22.8231 19.0663 19.0497 22.8397 14.4135 22.8397ZM14.4135 7.3769C10.5234 7.3769 7.3603 10.54 7.3603 14.4301C7.3603 18.3203 10.5234 21.4834 14.4135 21.4834C18.3037 21.4834 21.4668 18.3203 21.4668 14.4301C21.4668 10.54 18.3037 7.3769 14.4135 7.3769Z" fill="#6B7280"/>
<path d="M11.9716 13.6028C10.3819 13.6028 8.66203 13.3668 6.82819 12.8894C6.46468 12.7944 6.24766 12.4255 6.34261 12.062C6.43755 11.6985 6.80649 11.4815 7.17001 11.5764C12.7258 13.0196 17.0744 12.1054 19.7437 8.93687C19.9852 8.65203 20.4138 8.61405 20.6986 8.85548C20.9862 9.09692 21.0215 9.52554 20.78 9.81038C18.6613 12.3251 15.6664 13.6028 11.9716 13.6028Z" fill="#6B7280"/>
<path d="M8.5812 20.1839C8.42385 20.1839 8.26923 20.1297 8.14173 20.0212C7.85688 19.777 7.82433 19.3484 8.06577 19.0636C12.0319 14.4274 17.1644 13.326 22.1478 16.047C22.4761 16.226 22.5981 16.6383 22.4191 16.9666C22.24 17.2948 21.8277 17.4169 21.4995 17.2379C15.5151 13.9744 11.1611 17.5336 9.09662 19.9479C8.9637 20.1026 8.7738 20.1839 8.5812 20.1839Z" fill="#6B7280"/>
<path d="M16.6352 22.514C16.6108 22.514 16.5864 22.514 16.562 22.5113C16.1904 22.4706 15.9218 22.1369 15.9625 21.7625C16.4915 16.9121 15.2436 12.0209 12.2568 7.21931C12.0588 6.90192 12.1564 6.48415 12.4738 6.28612C12.7912 6.08809 13.209 6.18575 13.407 6.50314C16.5593 11.5679 17.8723 16.752 17.3107 21.9117C17.27 22.259 16.9771 22.514 16.6352 22.514Z" fill="#6B7280"/>
</svg>
