<svg width="29" height="29" viewBox="0 0 29 29" fill="none" xmlns="http://www.w3.org/2000/svg">
<path d="M21.4495 10.0669C20.9871 10.2661 20.5011 10.4048 20.0033 10.4795C20.2361 10.4396 20.5785 10.0204 20.7148 9.85066C20.9218 9.59469 21.0796 9.30249 21.1802 8.98888C21.1802 8.96559 21.2034 8.93232 21.1802 8.91568C21.1685 8.90927 21.1553 8.90592 21.1419 8.90592C21.1286 8.90592 21.1154 8.90927 21.1037 8.91568C20.5632 9.20863 19.988 9.43221 19.3917 9.58115C19.3709 9.5875 19.3488 9.58807 19.3277 9.5828C19.3066 9.57752 19.2873 9.5666 19.272 9.5512C19.2256 9.49588 19.1756 9.44364 19.1224 9.39482C18.8791 9.17669 18.6032 8.99817 18.3046 8.86577C17.9015 8.70026 17.4661 8.62858 17.0313 8.65615C16.6095 8.68282 16.1976 8.79607 15.8213 8.98888C15.4507 9.19216 15.1251 9.46831 14.8639 9.80075C14.5891 10.1429 14.3907 10.54 14.2821 10.9653C14.1925 11.3699 14.1823 11.788 14.2522 12.1964C14.2522 12.2663 14.2522 12.2763 14.1923 12.2663C11.822 11.9169 9.87728 11.0751 8.28822 9.26838C8.21841 9.18852 8.18184 9.18852 8.12533 9.26838C7.43385 10.3198 7.76962 11.9835 8.63396 12.8053C8.75031 12.9151 8.86999 13.0216 8.99631 13.1214C8.60002 13.0933 8.2134 12.9858 7.85937 12.8053C7.79289 12.7621 7.75632 12.7854 7.75299 12.8652C7.74357 12.9759 7.74357 13.0873 7.75299 13.198C7.82236 13.7285 8.03127 14.2312 8.35836 14.6544C8.68546 15.0777 9.119 15.4064 9.61465 15.607C9.73548 15.6588 9.86138 15.6978 9.9903 15.7234C9.62343 15.7957 9.24716 15.8069 8.87664 15.7567C8.79685 15.74 8.76693 15.7833 8.79685 15.8598C9.28554 17.1908 10.346 17.5967 11.1239 17.823C11.2303 17.8396 11.3367 17.8396 11.4564 17.8662C11.4564 17.8662 11.4564 17.8662 11.4364 17.8862C11.207 18.3054 10.2795 18.5883 9.854 18.7347C9.07732 19.0139 8.24923 19.1206 7.42721 19.0474C7.29755 19.0275 7.26763 19.0308 7.23439 19.0474C7.20115 19.0641 7.23439 19.1007 7.27096 19.1339C7.43718 19.2437 7.6034 19.3402 7.77627 19.4334C8.29089 19.7143 8.83496 19.9375 9.39856 20.0989C12.3174 20.9041 15.6019 20.3118 17.7926 18.1324C19.5147 16.4222 20.1197 14.0631 20.1197 11.7007C20.1197 11.6108 20.2294 11.5576 20.2926 11.511C20.7282 11.1712 21.1123 10.77 21.4328 10.3198C21.4883 10.2527 21.5168 10.1673 21.5126 10.0802C21.5126 10.0303 21.5126 10.0403 21.4495 10.0669Z" fill="#6B7280"/>
</svg>
